<svg width="91" height="78" viewBox="0 0 91 78" fill="none" xmlns="http://www.w3.org/2000/svg">
<g filter="url(#filter0_d_69_583)">
<path d="M37.2037 61.7647C37.2037 66.3126 35.3277 70 30.0886 70H13.4869C4.00014 70 4.00014 41.1765 13.4869 41.1765H30.0886C35.3277 41.1765 37.2037 44.8638 37.2037 49.4118V61.7647Z" fill="#553788"/>
<path d="M82.2654 65.8824H79.8937V45.2941H82.2654C82.8944 45.2941 83.4976 45.0772 83.9424 44.6911C84.3872 44.305 84.6371 43.7813 84.6371 43.2353C84.6371 42.6893 84.3872 42.1656 83.9424 41.7795C83.4976 41.3934 82.8944 41.1765 82.2654 41.1765H25.345C15.8583 41.1765 15.8583 70 25.345 70H82.2654C82.8944 70 83.4976 69.7831 83.9424 69.397C84.3872 69.0109 84.6371 68.4872 84.6371 67.9412C84.6371 67.3951 84.3872 66.8715 83.9424 66.4854C83.4976 66.0993 82.8944 65.8824 82.2654 65.8824Z" fill="#9266CC"/>
<path d="M82.6734 65.8823H27.7168C22.9735 65.8823 22.9735 45.2941 27.7168 45.2941H82.6734C85.2918 45.2941 85.2918 65.8823 82.6734 65.8823Z" fill="#CCD6DD"/>
<path d="M28.9027 49.4117H84.2814C83.9613 46.9926 83.4253 45.2941 82.6734 45.2941H27.7168C23.8012 45.2941 23.1205 59.3106 25.6701 64.2085C24.7404 58.1185 25.8171 49.4117 28.9027 49.4117Z" fill="#99AAB5"/>
<path d="M30.0885 14.4119C30.0885 16.5961 29.089 18.6907 27.3099 20.2352C25.5308 21.7796 23.1178 22.6472 20.6018 22.6472H11.115C1.62832 22.6472 1.62832 0.000156403 11.115 0.000156403H20.6018C23.1178 0.00015831 25.5308 0.867802 27.3099 2.41222C29.089 3.95664 30.0885 6.05132 30.0885 8.23545V14.4119Z" fill="#226699"/>
<path d="M75.1505 18.5296H72.7788V4.11781H75.1505C75.7795 4.11781 76.3828 3.90089 76.8275 3.51479C77.2723 3.12868 77.5222 2.60501 77.5222 2.05898C77.5222 1.51295 77.2723 0.989277 76.8275 0.603172C76.3828 0.21707 75.7795 0.000156403 75.1505 0.000156403H18.2302C8.74343 0.000156403 8.74343 22.6472 18.2302 22.6472H75.1505C75.7795 22.6472 76.3828 22.4303 76.8275 22.0442C77.2723 21.6581 77.5222 21.1344 77.5222 20.5884C77.5222 20.0424 77.2723 19.5187 76.8275 19.1326C76.3828 18.7465 75.7795 18.5296 75.1505 18.5296Z" fill="#55ACEE"/>
<path d="M75.5583 18.5298H20.6017C15.8583 18.5298 15.8583 4.11802 20.6017 4.11802H75.5583C78.1767 4.11802 78.1767 18.5298 75.5583 18.5298Z" fill="#CCD6DD"/>
<path d="M20.602 8.23527H77.3445C77.0741 5.91909 76.4812 4.11762 75.5586 4.11762H20.602C17.7726 4.11762 16.6437 9.24203 17.1915 13.3823C17.5615 10.5864 18.6881 8.23527 20.602 8.23527Z" fill="#99AAB5"/>
<path d="M49.062 32.9412C49.062 35.1254 48.0625 37.22 46.2834 38.7645C44.5043 40.3089 42.0913 41.1765 39.5753 41.1765H15.8585C6.37173 41.1765 6.37173 22.6471 15.8585 22.6471H39.5753C42.0913 22.6471 44.5043 23.5147 46.2834 25.0592C48.0625 26.6036 49.062 28.6983 49.062 30.8824V32.9412Z" fill="#F4900C"/>
<path d="M84.6372 37.0589H82.2655V26.7647H84.6372C85.2662 26.7647 85.8694 26.5478 86.3142 26.1617C86.759 25.7756 87.0089 25.252 87.0089 24.7059C87.0089 24.1599 86.759 23.6362 86.3142 23.2501C85.8694 22.864 85.2662 22.6471 84.6372 22.6471H37.2035C27.7168 22.6471 27.7168 41.1765 37.2035 41.1765H84.6372C85.2662 41.1765 85.8694 40.9596 86.3142 40.5735C86.759 40.1874 87.0089 39.6637 87.0089 39.1177C87.0089 38.5717 86.759 38.048 86.3142 37.6619C85.8694 37.2758 85.2662 37.0589 84.6372 37.0589Z" fill="#FFAC33"/>
<path d="M85.0451 37.0588H39.5752C34.8319 37.0588 34.8319 26.7647 39.5752 26.7647H85.0451C87.6634 26.7647 87.6634 37.0588 85.0451 37.0588Z" fill="#CCD6DD"/>
<path d="M39.5754 30.882H86.971C86.8192 28.6955 86.1789 26.7643 85.0452 26.7643H39.5754C36.5538 26.7643 35.4652 30.9376 36.2953 33.9702C36.7649 32.2429 37.8535 30.882 39.5754 30.882Z" fill="#99AAB5"/>
</g>
<defs>
<filter id="filter0_d_69_583" x="0" y="0.000244141" width="91.0089" height="77.9998" filterUnits="userSpaceOnUse" color-interpolation-filters="sRGB">
<feFlood flood-opacity="0" result="BackgroundImageFix"/>
<feColorMatrix in="SourceAlpha" type="matrix" values="0 0 0 0 0 0 0 0 0 0 0 0 0 0 0 0 0 0 127 0" result="hardAlpha"/>
<feOffset dy="4"/>
<feGaussianBlur stdDeviation="2"/>
<feComposite in2="hardAlpha" operator="out"/>
<feColorMatrix type="matrix" values="0 0 0 0 0 0 0 0 0 0 0 0 0 0 0 0 0 0 0.5 0"/>
<feBlend mode="normal" in2="BackgroundImageFix" result="effect1_dropShadow_69_583"/>
<feBlend mode="normal" in="SourceGraphic" in2="effect1_dropShadow_69_583" result="shape"/>
</filter>
</defs>
</svg>
