<svg width="114" height="111" viewBox="0 0 114 111" fill="none" xmlns="http://www.w3.org/2000/svg">
<g filter="url(#filter0_d_69_542)">
<mask id="mask0_69_542" style="mask-type:luminance" maskUnits="userSpaceOnUse" x="4" y="17" width="94" height="84">
<path d="M8.33092 24.5156C8.33092 24.5156 0.755359 28.4832 5.6426 33.4751C10.5298 38.4671 11.0192 34.4198 9.79686 46.4615C8.57448 58.5031 10.5139 74.7537 13.332 79.3336C16.15 83.9136 8.26946 89.0034 8.66553 94.2776C9.06161 99.5518 17.4953 99.2354 23.4615 95.1426C29.4278 91.0498 39.5346 101.505 58.132 100.783C76.7295 100.062 79.9345 89.3016 84.0888 87.8652C88.243 86.4289 93.2259 91.5073 96.563 86.1261C99.9 80.7449 96.1691 78.1591 92.6591 75.9647C89.149 73.7703 90.6901 62.143 87.0138 48.344C83.3376 34.545 78.4344 31.8157 82.3588 29.5212C86.2831 27.2266 85.129 16.5325 79.9618 17.846C74.7946 19.1594 74.5966 24.1286 69.8414 22.8743C65.0861 21.6201 28.6128 22.1664 22.8697 25.3054C17.1266 28.4445 14.074 24.4951 8.33092 24.5156Z" fill="white"/>
</mask>
<g mask="url(#mask0_69_542)">
<path d="M8.33092 24.5156C8.33092 24.5156 0.755359 28.4832 5.6426 33.4751C10.5298 38.4671 11.0192 34.4198 9.79686 46.4615C8.57448 58.5031 10.5139 74.7537 13.332 79.3336C16.15 83.9136 8.26946 89.0034 8.66553 94.2776C9.06161 99.5518 17.4953 99.2354 23.4615 95.1426C29.4278 91.0498 39.5346 101.505 58.132 100.783C76.7295 100.062 79.9345 89.3016 84.0888 87.8652C88.243 86.4289 93.2259 91.5073 96.563 86.1261C99.9 80.7449 96.1691 78.1591 92.6591 75.9647C89.149 73.7703 90.6901 62.143 87.0138 48.344C83.3376 34.545 78.4344 31.8157 82.3588 29.5212C86.2831 27.2266 85.129 16.5325 79.9618 17.846C74.7946 19.1594 74.5966 24.1286 69.8414 22.8743C65.0861 21.6201 28.6128 22.1664 22.8697 25.3054C17.1266 28.4445 14.074 24.4951 8.33092 24.5156Z" fill="#FE89A7"/>
<path d="M42.8671 31.7061C45.5662 31.7061 47.7543 28.5784 47.7543 24.7201C47.7543 20.8619 45.5662 17.7341 42.8671 17.7341C40.1679 17.7341 37.9799 20.8619 37.9799 24.7201C37.9799 28.5784 40.1679 31.7061 42.8671 31.7061Z" fill="#CD486A"/>
<path d="M64.8586 61.1913C67.4672 61.1913 69.5819 56.9975 69.5819 51.8243C69.5819 46.651 67.4672 42.4573 64.8586 42.4573C62.25 42.4573 60.1353 46.651 60.1353 51.8243C60.1353 56.9975 62.25 61.1913 64.8586 61.1913Z" fill="#CD486A"/>
<path d="M85.63 64.2847C89.3638 64.2847 92.3907 60.1643 92.3907 55.0815C92.3907 49.9988 89.3638 45.8784 85.63 45.8784C81.8962 45.8784 78.8694 49.9988 78.8694 55.0815C78.8694 60.1643 81.8962 64.2847 85.63 64.2847Z" fill="#CD486A"/>
<path d="M13.0566 72.7574C16.7452 72.7574 19.7353 69.0742 19.7353 64.5308C19.7353 59.9874 16.7452 56.3042 13.0566 56.3042C9.36808 56.3042 6.37793 59.9874 6.37793 64.5308C6.37793 69.0742 9.36808 72.7574 13.0566 72.7574Z" fill="#CD486A"/>
<path d="M41.0757 104.034C44.7642 104.034 47.7544 100.241 47.7544 95.5634C47.7544 90.8855 44.7642 87.0933 41.0757 87.0933C37.3871 87.0933 34.397 90.8855 34.397 95.5634C34.397 100.241 37.3871 104.034 41.0757 104.034Z" fill="#CD486A"/>
<path d="M82.2085 96.7041C84.7731 96.7041 86.8522 93.8964 86.8522 90.4329C86.8522 86.9693 84.7731 84.1616 82.2085 84.1616C79.6439 84.1616 77.5648 86.9693 77.5648 90.4329C77.5648 93.8964 79.6439 96.7041 82.2085 96.7041Z" fill="#CD486A"/>
<path d="M22.831 31.7061C24.5408 31.7061 25.9268 29.1531 25.9268 26.0039C25.9268 22.8547 24.5408 20.3018 22.831 20.3018C21.1213 20.3018 19.7352 22.8547 19.7352 26.0039C19.7352 29.1531 21.1213 31.7061 22.831 31.7061Z" fill="#CD486A"/>
<path d="M41.1576 69.9892C43.3614 69.9892 45.148 67.5911 45.148 64.633C45.148 61.6749 43.3614 59.2769 41.1576 59.2769C38.9538 59.2769 37.1672 61.6749 37.1672 64.633C37.1672 67.5911 38.9538 69.9892 41.1576 69.9892Z" fill="#CD486A"/>
<path d="M11.2628 93.7722C13.962 93.7722 16.1501 90.782 16.1501 87.0935C16.1501 83.4049 13.962 80.4148 11.2628 80.4148C8.5637 80.4148 6.37561 83.4049 6.37561 87.0935C6.37561 90.782 8.5637 93.7722 11.2628 93.7722Z" fill="#CD486A"/>
<path d="M65.8374 29.0976C67.1863 29.0976 68.2799 25.6336 68.2799 21.3605C68.2799 17.0873 67.1863 13.6233 65.8374 13.6233C64.4884 13.6233 63.3949 17.0873 63.3949 21.3605C63.3949 25.6336 64.4884 29.0976 65.8374 29.0976Z" fill="#CD486A"/>
<path d="M84.3027 31.7041C86.7001 31.7041 88.6436 28.6019 88.6436 24.775C88.6436 20.9482 86.7001 17.8459 84.3027 17.8459C81.9053 17.8459 79.9618 20.9482 79.9618 24.775C79.9618 28.6019 81.9053 31.7041 84.3027 31.7041Z" fill="#CD486A"/>
<path d="M6.21397 43.7591C9.09289 43.7591 11.4267 39.7845 11.4267 34.8815C11.4267 29.9785 9.09289 26.0039 6.21397 26.0039C3.33505 26.0039 1.00122 29.9785 1.00122 34.8815C1.00122 39.7845 3.33505 43.7591 6.21397 43.7591Z" fill="#CD486A"/>
<path d="M33.2566 50.1124C35.4165 50.1124 37.1673 47.159 37.1673 43.5157C37.1673 39.8724 35.4165 36.9189 33.2566 36.9189C31.0968 36.9189 29.3459 39.8724 29.3459 43.5157C29.3459 47.159 31.0968 50.1124 33.2566 50.1124Z" fill="#CD486A"/>
<path d="M68.3618 78.9486C70.2966 78.9486 71.865 76.5414 71.865 73.572C71.865 70.6025 70.2966 68.1953 68.3618 68.1953C66.427 68.1953 64.8585 70.6025 64.8585 73.572C64.8585 76.5414 66.427 78.9486 68.3618 78.9486Z" fill="#CD486A"/>
</g>
<path d="M13.7074 90.6763C13.7074 90.6763 17.2904 83.1827 25.2734 87.4098C33.2564 91.6369 41.4352 97.3846 48.5896 97.1206C55.7441 96.8565 56.5567 89.0761 56.5567 89.0761H60.1123C57.8587 97.4575 53.3221 100.084 51.9608 100.774C45.3163 104.136 33.9393 102.017 28.7857 97.5303C27.9344 96.7905 25.7514 94.6781 23.4387 95.1333C21.8885 95.4384 21.6336 96.4035 19.8854 97.1206C16.9648 98.3361 11.916 96.2146 13.7074 90.6763Z" fill="#7F929F"/>
<path d="M38.2211 37.3907C38.0075 37.394 37.7989 37.456 37.6182 37.5701C37.4375 37.6841 37.2917 37.8457 37.1968 38.0372C35.1481 42.1937 25.3167 64.0076 36.1838 80.6565C44.0599 92.721 59.0448 96.313 68.6417 98.6143C78.7781 101.043 88.7347 100.806 90.6241 100.75C93.9861 100.649 97.3394 100.354 100.667 99.864C100.943 99.823 101.195 99.6842 101.378 99.4727C101.56 99.2613 101.66 98.9913 101.66 98.7122V96.2879C101.658 96.0168 101.562 95.7547 101.388 95.5469C101.214 95.339 100.973 95.1986 100.706 95.1498L88.5048 92.9144C88.212 92.8604 87.9509 92.6963 87.7753 92.4559C87.5996 92.2155 87.5226 91.9169 87.5601 91.6215L88.4251 84.8768C88.4469 84.7053 88.5065 84.5409 88.5998 84.3954C88.6931 84.2499 88.8176 84.127 88.9643 84.0356C89.111 83.9443 89.2763 83.8868 89.448 83.8673C89.6197 83.8478 89.7936 83.8669 89.9571 83.923C93.4216 85.109 102.386 88.1365 102.816 87.8497C103.351 87.4923 104.373 84.6446 104.373 84.112C104.373 83.5793 87.073 71.7106 76.8592 66.9645C66.6454 62.2184 53.8412 50.8209 55.2661 43.9328L56.4043 38.4697C56.4394 38.2987 56.4357 38.1219 56.3934 37.9526C56.3511 37.7832 56.2713 37.6255 56.1598 37.4911C56.0484 37.3567 55.9082 37.2491 55.7495 37.1761C55.5909 37.1032 55.4179 37.0668 55.2434 37.0697L38.2211 37.3907Z" fill="#9DABBA"/>
<path d="M34.9023 34.6726C34.9023 34.6726 30.0446 51.6243 31.16 61.6879C32.2754 71.7514 42.5006 57.5905 42.5006 57.5905L40.7183 37.0855L34.9023 34.6726Z" fill="#9DABBA"/>
<mask id="mask1_69_542" style="mask-type:luminance" maskUnits="userSpaceOnUse" x="30" y="9" width="37" height="35">
<path d="M46.4841 13.708C46.4841 13.708 45.239 10.0659 43.6364 9.43538C42.0339 8.80485 38.7424 13.708 38.7424 13.708C38.7424 13.708 32.956 17.0018 30.6433 23.8535C28.3305 30.7052 33.4021 40.6755 41.59 42.5443C49.7779 44.4132 60.1875 43.25 63.8296 38.0145C67.4717 32.7789 65.0861 21.625 65.0861 21.625C65.0861 21.625 66.6385 16.196 65.8623 15.3948C65.0861 14.5935 58.4985 17.4434 58.4985 17.4434C58.4985 17.4434 52.0907 13.1754 46.4841 13.708Z" fill="white"/>
</mask>
<g mask="url(#mask1_69_542)">
<path d="M46.4841 13.708C46.4841 13.708 45.239 10.0659 43.6364 9.43538C42.0339 8.80485 38.7424 13.708 38.7424 13.708C38.7424 13.708 32.956 17.0018 30.6433 23.8535C28.3305 30.7052 33.4021 40.6755 41.59 42.5443C49.7779 44.4132 60.1875 43.25 63.8296 38.0145C67.4717 32.7789 65.0861 21.625 65.0861 21.625C65.0861 21.625 66.6385 16.196 65.8623 15.3948C65.0861 14.5935 58.4985 17.4434 58.4985 17.4434C58.4985 17.4434 52.0907 13.1754 46.4841 13.708Z" fill="#9DABBA"/>
<path d="M54.2282 13.708C54.2282 13.708 48.0822 23.1433 51.4693 27.4137C54.8565 31.684 67.77 28.3925 67.77 28.3925C67.77 28.3925 70.431 17.4457 70.1578 17.0906C69.8847 16.7355 66.4497 11.6616 66.0787 11.6616C65.7077 11.6616 54.2282 13.708 54.2282 13.708Z" fill="#4D697E"/>
</g>
<path d="M40.7181 22.344C41.7025 22.344 42.5005 21.546 42.5005 20.5616C42.5005 19.5773 41.7025 18.7793 40.7181 18.7793C39.7338 18.7793 38.9358 19.5773 38.9358 20.5616C38.9358 21.546 39.7338 22.344 40.7181 22.344Z" fill="#161813"/>
<path d="M44.1326 27.0583C44.1759 27.4134 44.3808 29.1206 45.5166 29.4643C46.2177 29.676 46.8824 29.2367 47.3696 28.9317C47.6564 28.7473 48.6989 28.0735 48.5805 27.4635C48.5236 27.163 48.2277 27.0765 46.3816 26.3982C44.9544 25.8746 44.5424 25.7153 44.2806 25.9429C44.0188 26.1705 44.078 26.619 44.1326 27.0583ZM57.7427 26.7237C57.6725 26.7237 57.604 26.7017 57.5469 26.6609C57.4897 26.6201 57.4468 26.5625 57.424 26.496C57.3079 26.191 56.8481 25.1598 55.7942 24.7456C54.549 24.2561 53.0285 24.7888 52.0974 26.0385C52.0705 26.0744 52.0368 26.1046 51.9983 26.1274C51.9597 26.1503 51.917 26.1653 51.8726 26.1716C51.8282 26.178 51.783 26.1755 51.7395 26.1644C51.6961 26.1533 51.6553 26.1337 51.6194 26.1068C51.5835 26.0799 51.5533 26.0462 51.5305 26.0076C51.5076 25.969 51.4926 25.9263 51.4863 25.8819C51.4799 25.8375 51.4824 25.7923 51.4935 25.7489C51.5047 25.7055 51.5242 25.6646 51.5511 25.6288C52.6642 24.1332 54.5103 23.5095 56.0423 24.1105C57.3239 24.6135 57.8815 25.779 58.0614 26.2547C58.0775 26.2967 58.0851 26.3415 58.0839 26.3864C58.0826 26.4314 58.0725 26.4757 58.0541 26.5167C58.0357 26.5577 58.0094 26.5947 57.9766 26.6256C57.9439 26.6564 57.9054 26.6804 57.8633 26.6964C57.825 26.7122 57.7842 26.7215 57.7427 26.7237ZM47.5175 33.6892C41.7562 33.6892 39.2773 28.6312 39.2477 28.5698C39.2343 28.5426 39.2265 28.5131 39.2247 28.4829C39.2228 28.4527 39.227 28.4224 39.237 28.3939C39.2471 28.3653 39.2626 28.3391 39.2829 28.3166C39.3032 28.2942 39.3277 28.276 39.3551 28.2631C39.3825 28.2503 39.4122 28.243 39.4424 28.2417C39.4726 28.2405 39.5028 28.2452 39.5311 28.2558C39.5595 28.2663 39.5855 28.2824 39.6075 28.3031C39.6296 28.3238 39.6473 28.3487 39.6597 28.3763C39.6916 28.4446 43.0127 35.2052 50.9547 32.6626C50.9839 32.6505 51.0152 32.6446 51.0468 32.6453C51.0783 32.646 51.1094 32.6532 51.138 32.6666C51.1666 32.6799 51.1921 32.699 51.2129 32.7227C51.2337 32.7465 51.2494 32.7742 51.2589 32.8043C51.2684 32.8344 51.2715 32.8662 51.2681 32.8975C51.2647 32.9289 51.2548 32.9592 51.239 32.9865C51.2233 33.0139 51.202 33.0376 51.1766 33.0563C51.1512 33.075 51.1221 33.0882 51.0913 33.0951C49.9382 33.4776 48.7324 33.678 47.5175 33.6892Z" fill="#161813"/>
<path d="M43.6113 32.8105C43.5775 32.8095 43.5442 32.8018 43.5134 32.7877C43.4592 32.7617 43.4175 32.7152 43.3975 32.6584C43.3774 32.6017 43.3806 32.5394 43.4064 32.485L45.3436 28.3876C45.3692 28.333 45.4156 28.2908 45.4723 28.2703C45.5291 28.2498 45.5917 28.2527 45.6463 28.2784C45.701 28.304 45.7432 28.3504 45.7637 28.4071C45.7841 28.4639 45.7812 28.5265 45.7556 28.5811L43.8185 32.6785C43.8002 32.718 43.7709 32.7514 43.7342 32.7748C43.6975 32.7982 43.6548 32.8106 43.6113 32.8105ZM36.2042 22.9905C36.1857 22.9908 36.1674 22.9863 36.1511 22.9775C36.1347 22.9688 36.1209 22.956 36.1109 22.9404L32.6964 17.9121C32.6858 17.8999 32.6779 17.8857 32.6733 17.8703C32.6686 17.855 32.6672 17.8388 32.6692 17.8228C32.6713 17.8068 32.6767 17.7915 32.6851 17.7778C32.6935 17.7641 32.7047 17.7523 32.718 17.7432C32.7312 17.7341 32.7463 17.728 32.7621 17.7252C32.778 17.7223 32.7942 17.7229 32.8098 17.7268C32.8254 17.7307 32.84 17.7379 32.8526 17.7478C32.8653 17.7578 32.8756 17.7703 32.8831 17.7846L36.3112 22.813C36.3278 22.8384 36.3337 22.8693 36.3278 22.8991C36.3218 22.9289 36.3044 22.9552 36.2793 22.9723C36.2569 22.9863 36.2305 22.9927 36.2042 22.9905ZM34.4924 23.9238C34.4734 23.9236 34.4547 23.9189 34.4378 23.9101L29.2023 21.1057C29.1892 21.0988 29.1776 21.0893 29.1682 21.0779C29.1588 21.0664 29.1518 21.0532 29.1475 21.039C29.1433 21.0248 29.1419 21.0099 29.1435 20.9952C29.1451 20.9805 29.1496 20.9662 29.1567 20.9532C29.1635 20.9399 29.1728 20.9281 29.1842 20.9185C29.1955 20.9088 29.2087 20.9016 29.2229 20.8971C29.2371 20.8927 29.2521 20.8911 29.2669 20.8925C29.2818 20.894 29.2962 20.8983 29.3093 20.9054L34.5448 23.7098C34.5581 23.7165 34.5699 23.7259 34.5795 23.7372C34.5891 23.7486 34.5964 23.7618 34.6009 23.776C34.6053 23.7902 34.6069 23.8052 34.6055 23.82C34.604 23.8348 34.5996 23.8492 34.5926 23.8623C34.5829 23.8806 34.5685 23.8959 34.5508 23.9067C34.5332 23.9175 34.5131 23.9234 34.4924 23.9238ZM33.3133 26.1933H33.2837L27.5929 24.7706C27.5784 24.7669 27.5648 24.7603 27.5528 24.7513C27.5408 24.7423 27.5307 24.7311 27.5231 24.7182C27.5155 24.7053 27.5105 24.691 27.5084 24.6762C27.5063 24.6613 27.5072 24.6462 27.511 24.6317C27.5144 24.6173 27.5207 24.6037 27.5295 24.5918C27.5383 24.5798 27.5493 24.5697 27.5621 24.5621C27.5748 24.5544 27.5889 24.5494 27.6036 24.5473C27.6182 24.5452 27.6332 24.546 27.6476 24.5498L33.3383 25.9725C33.3533 25.9743 33.3677 25.979 33.3808 25.9864C33.394 25.9937 33.4055 26.0036 33.4148 26.0155C33.4241 26.0273 33.431 26.0409 33.435 26.0554C33.4391 26.0698 33.4403 26.085 33.4385 26.0999C33.4367 26.1149 33.432 26.1293 33.4246 26.1425C33.4172 26.1556 33.4073 26.1671 33.3955 26.1764C33.3837 26.1857 33.3701 26.1926 33.3556 26.1967C33.3411 26.2007 33.326 26.2019 33.311 26.2001L33.3133 26.1933ZM66.7318 33.589C66.7205 33.5912 66.7089 33.5912 66.6976 33.589L57.5309 30.648C57.5017 30.6386 57.4774 30.618 57.4633 30.5907C57.4492 30.5634 57.4465 30.5316 57.4558 30.5023C57.4652 30.4736 57.4855 30.4497 57.5123 30.4357C57.5391 30.4216 57.5703 30.4186 57.5992 30.4272L66.7659 33.3705C66.7947 33.3799 66.8186 33.4001 66.8326 33.4269C66.8466 33.4537 66.8497 33.4849 66.8411 33.5139C66.8327 33.5361 66.8177 33.5552 66.7982 33.5686C66.7787 33.582 66.7555 33.5891 66.7318 33.589ZM63.1716 37.1947C63.1462 37.1952 63.1214 37.1872 63.1011 37.1719L57.0006 32.353C56.9887 32.3439 56.9788 32.3324 56.9714 32.3194C56.964 32.3064 56.9594 32.292 56.9577 32.2772C56.956 32.2623 56.9573 32.2472 56.9615 32.2329C56.9658 32.2185 56.9728 32.2052 56.9824 32.1936C56.9915 32.1818 57.0029 32.1718 57.0159 32.1645C57.0289 32.1571 57.0433 32.1524 57.0582 32.1507C57.073 32.149 57.0881 32.1503 57.1024 32.1546C57.1168 32.1588 57.1301 32.1659 57.1417 32.1754L63.2377 36.9921C63.2611 37.0109 63.2762 37.0382 63.2796 37.068C63.283 37.0979 63.2745 37.1278 63.2559 37.1514C63.246 37.1645 63.2333 37.1752 63.2187 37.1826C63.2041 37.1901 63.188 37.1942 63.1716 37.1947ZM60.9909 42.5668C60.9733 42.5666 60.9559 42.5624 60.9402 42.5545C60.9244 42.5466 60.9106 42.5353 60.8999 42.5212L55.159 34.7385C55.1502 34.7264 55.1439 34.7127 55.1404 34.6982C55.1368 34.6836 55.1362 34.6685 55.1385 34.6537C55.1409 34.6389 55.1461 34.6247 55.1539 34.6119C55.1617 34.5991 55.172 34.588 55.1841 34.5792C55.1962 34.5704 55.2099 34.564 55.2245 34.5605C55.239 34.557 55.2541 34.5564 55.2689 34.5587C55.2837 34.561 55.2979 34.5663 55.3107 34.5741C55.3235 34.5819 55.3346 34.5921 55.3434 34.6042L61.082 42.3847C61.0947 42.4016 61.1024 42.4217 61.1043 42.4427C61.1062 42.4638 61.1022 42.4849 61.0927 42.5039C61.0833 42.5228 61.0688 42.5387 61.0508 42.5498C61.0328 42.5609 61.0121 42.5668 60.9909 42.5668Z" fill="#161813"/>
<path d="M38.4458 24.1347C38.8803 23.5538 38.4785 22.5189 37.5484 21.823C36.6182 21.1272 35.5119 21.034 35.0774 21.6148C34.6429 22.1956 35.0447 23.2306 35.9748 23.9264C36.905 24.6223 38.0113 24.7155 38.4458 24.1347Z" fill="#C1D1E0"/>
<path d="M58.6692 30.0744C58.8617 29.375 58.1099 28.5582 56.9899 28.2499C55.8699 27.9416 54.806 28.2587 54.6135 28.958C54.421 29.6574 55.1728 30.4743 56.2928 30.7826C57.4128 31.0908 58.4767 30.7738 58.6692 30.0744Z" fill="#C1D1E0"/>
<path d="M53.4451 80.7747H53.3039C49.8477 80.5335 46.4957 79.4874 43.5158 77.7199C35.4964 72.9396 33.2315 64.4991 32.7284 62.0134C32.7163 61.953 32.7287 61.8903 32.7629 61.8391C32.797 61.7878 32.8501 61.7523 32.9105 61.7402C32.9709 61.7281 33.0336 61.7405 33.0848 61.7747C33.136 61.8088 33.1716 61.8619 33.1836 61.9223C33.6776 64.3511 35.8993 72.6369 43.7571 77.3193C46.6763 79.0494 49.9597 80.0729 53.3449 80.3081C53.6651 80.3342 53.984 80.2442 54.2432 80.0544C54.5024 79.8646 54.6845 79.5878 54.7562 79.2746L55.1796 77.4399C55.2548 77.1184 55.2098 76.7804 55.0529 76.4898C54.8961 76.1992 54.6383 75.9761 54.3283 75.8624C51.2927 74.7513 48.5192 73.0255 46.1814 70.7931C39.4663 64.3762 38.7196 55.9265 38.7105 52.5826C38.7105 52.5222 38.7345 52.4643 38.7772 52.4217C38.8199 52.379 38.8778 52.355 38.9382 52.355C38.9985 52.355 39.0564 52.379 39.0991 52.4217C39.1418 52.4643 39.1658 52.5222 39.1658 52.5826C39.1658 55.8582 39.9079 64.1576 46.4955 70.4562C48.7921 72.6484 51.5158 74.3439 54.4967 75.4368C54.9114 75.5882 55.2561 75.8863 55.4658 76.2747C55.6756 76.6631 55.7357 77.1149 55.6349 77.5446L55.2001 79.3862C55.1083 79.7823 54.8846 80.1354 54.5657 80.3877C54.2468 80.64 53.8517 80.7764 53.4451 80.7747Z" fill="#161813"/>
<path d="M54.1919 57.5471C55.4575 58.6602 62.4094 64.574 72.0882 63.5019C75.4929 63.109 78.7605 61.9333 81.6351 60.0669C81.951 59.8643 82.1841 59.5554 82.2922 59.196C82.4003 58.8366 82.3764 58.4503 82.2246 58.107L81.4598 56.3748C81.304 56.022 81.0242 55.7387 80.6735 55.5784C80.3228 55.4181 79.9254 55.3921 79.5568 55.5052C76.4949 56.4411 73.2736 56.7394 70.0919 56.3816C60.2651 55.2434 54.5311 48.0708 53.3064 46.4614L54.1919 57.5471Z" fill="#9DABBA"/>
<path d="M70.8636 63.8275C70.8135 63.828 70.7647 63.812 70.7247 63.782L57.9774 54.028C57.9294 53.9911 57.898 53.9368 57.8901 53.8768C57.8822 53.8168 57.8984 53.7561 57.9353 53.7081C57.9721 53.6601 58.0265 53.6287 58.0865 53.6208C58.1464 53.613 58.2071 53.6292 58.2551 53.666L71.0024 63.42C71.0399 63.4491 71.0673 63.4891 71.0809 63.5345C71.0945 63.5799 71.0936 63.6284 71.0783 63.6733C71.063 63.7181 71.0341 63.7571 70.9956 63.7847C70.9571 63.8124 70.911 63.8273 70.8636 63.8275ZM55.2299 78.3663C55.2115 78.3664 55.1935 78.3617 55.1775 78.3526L52.6622 77.0278C52.6472 77.0221 52.6335 77.0133 52.6221 77.0019C52.6108 76.9905 52.6019 76.9769 52.5962 76.9618C52.5905 76.9468 52.5881 76.9307 52.589 76.9146C52.59 76.8986 52.5943 76.8829 52.6018 76.8687C52.6092 76.8544 52.6196 76.8419 52.6322 76.832C52.6449 76.822 52.6595 76.8149 52.6751 76.811C52.6907 76.8071 52.7069 76.8065 52.7228 76.8094C52.7386 76.8122 52.7536 76.8184 52.7669 76.8275L55.2708 78.1523C55.2841 78.159 55.296 78.1683 55.3056 78.1797C55.3152 78.1911 55.3225 78.2042 55.3269 78.2185C55.3314 78.2327 55.333 78.2476 55.3315 78.2625C55.3301 78.2773 55.3257 78.2917 55.3187 78.3048C55.3101 78.3216 55.2975 78.336 55.282 78.3467C55.2665 78.3575 55.2486 78.3642 55.2299 78.3663ZM54.9727 79.443H54.9522L51.9497 78.9627C51.9348 78.9603 51.9204 78.955 51.9075 78.947C51.8946 78.9391 51.8834 78.9287 51.8746 78.9164C51.8657 78.9042 51.8593 78.8903 51.8558 78.8756C51.8523 78.8609 51.8517 78.8456 51.8541 78.8306C51.8565 78.8157 51.8618 78.8014 51.8697 78.7885C51.8777 78.7756 51.8881 78.7644 51.9003 78.7555C51.9126 78.7466 51.9265 78.7402 51.9412 78.7367C51.9559 78.7332 51.9712 78.7326 51.9861 78.735L54.9863 79.213C55.0165 79.2155 55.0445 79.2298 55.0641 79.2528C55.0838 79.2759 55.0934 79.3058 55.091 79.336C55.0886 79.3662 55.0743 79.3941 55.0512 79.4138C55.0282 79.4334 54.9983 79.4431 54.9681 79.4407L54.9727 79.443ZM78.4642 57.2535C78.4389 57.2532 78.4145 57.2446 78.3948 57.2289C78.375 57.2133 78.361 57.1915 78.3549 57.167C78.3512 57.1526 78.3503 57.1377 78.3524 57.123C78.3545 57.1083 78.3596 57.0942 78.3672 57.0815C78.3748 57.0688 78.3849 57.0577 78.3969 57.0489C78.4088 57.0402 78.4224 57.0339 78.4369 57.0304L81.4325 56.2656C81.4627 56.258 81.4946 56.2628 81.5213 56.2788C81.548 56.2948 81.5672 56.3207 81.5747 56.3509C81.5823 56.3811 81.5775 56.4131 81.5615 56.4397C81.5455 56.4664 81.5196 56.4857 81.4894 56.4932L78.4938 57.2558C78.4839 57.2572 78.4737 57.2564 78.4642 57.2535ZM79.962 59.0928C79.9435 59.0926 79.9254 59.088 79.9091 59.0792C79.8929 59.0705 79.879 59.058 79.8687 59.0427C79.8601 59.0305 79.8541 59.0167 79.8509 59.0021C79.8477 58.9876 79.8475 58.9725 79.8503 58.9579C79.8531 58.9433 79.8587 58.9293 79.867 58.9169C79.8752 58.9045 79.8858 58.8938 79.8982 58.8856L81.9264 57.4857C81.9515 57.4685 81.9824 57.4619 82.0122 57.4675C82.0421 57.473 82.0686 57.4902 82.0858 57.5153C82.103 57.5403 82.1095 57.5712 82.104 57.6011C82.0984 57.631 82.0812 57.6574 82.0562 57.6746L80.028 59.0723C80.0085 59.0855 79.9855 59.0926 79.962 59.0928ZM101.664 97.2437C101.65 97.2459 101.635 97.2459 101.621 97.2437L99.9298 96.5608C99.9017 96.5493 99.8793 96.5272 99.8676 96.4992C99.8558 96.4713 99.8557 96.4398 99.8672 96.4117C99.8786 96.3836 99.9008 96.3613 99.9288 96.3495C99.9567 96.3378 99.9882 96.3376 100.016 96.3491L101.708 97.032C101.721 97.0375 101.734 97.0457 101.745 97.0562C101.755 97.0667 101.764 97.0792 101.77 97.093C101.775 97.1068 101.778 97.1216 101.778 97.1365C101.778 97.1515 101.775 97.1662 101.769 97.18C101.759 97.1995 101.745 97.2158 101.726 97.2271C101.707 97.2384 101.686 97.2442 101.664 97.2437ZM99.7659 98.7279C99.7357 98.7306 99.7057 98.7212 99.6824 98.7018C99.6591 98.6823 99.6445 98.6545 99.6418 98.6243C99.6391 98.5941 99.6485 98.5641 99.6679 98.5408C99.6873 98.5175 99.7152 98.5029 99.7454 98.5002L101.644 98.1428C101.674 98.1374 101.705 98.1442 101.73 98.1617C101.755 98.1792 101.773 98.206 101.778 98.2362C101.784 98.2664 101.777 98.2975 101.759 98.3227C101.742 98.3478 101.715 98.365 101.685 98.3705L99.7955 98.7256L99.7659 98.7279ZM104.105 85.3158C104.08 85.316 104.056 85.308 104.036 85.2931L102.527 84.1982C102.503 84.1804 102.486 84.1536 102.482 84.1237C102.477 84.0938 102.484 84.0633 102.502 84.0388C102.52 84.0144 102.547 83.998 102.576 83.9933C102.606 83.9886 102.637 83.996 102.661 84.0138L104.166 85.1087C104.178 85.1175 104.188 85.1286 104.196 85.1414C104.204 85.1542 104.209 85.1684 104.212 85.1832C104.214 85.198 104.213 85.2131 104.21 85.2277C104.206 85.2422 104.2 85.2559 104.191 85.268C104.181 85.2821 104.168 85.2937 104.153 85.302C104.138 85.3103 104.122 85.3151 104.105 85.3158ZM103.572 86.7067H103.531L101.623 85.9555C101.608 85.9509 101.594 85.9433 101.583 85.9332C101.571 85.923 101.561 85.9105 101.554 85.8964C101.547 85.8823 101.543 85.867 101.543 85.8514C101.542 85.8357 101.545 85.8201 101.55 85.8055C101.556 85.7909 101.565 85.7776 101.576 85.7665C101.587 85.7554 101.6 85.7466 101.614 85.7408C101.629 85.7351 101.644 85.7323 101.66 85.7328C101.676 85.7333 101.691 85.7371 101.705 85.7438L103.613 86.495C103.643 86.5004 103.67 86.5176 103.687 86.5428C103.705 86.568 103.712 86.5991 103.706 86.6293C103.701 86.6595 103.684 86.6862 103.658 86.7037C103.633 86.7212 103.602 86.728 103.572 86.7226V86.7067Z" fill="#161813"/>
<path d="M43.3268 59.9147C43.1424 61.5081 43.7593 62.8102 44.2055 63.6C47.7292 69.8667 57.9658 78.5895 66.7409 75.2092C68.587 74.4967 69.5089 73.6272 69.7684 72.6507C70.4741 70.0101 66.5315 67.8272 58.7078 59.9033C54.1552 55.2779 53.2629 53.7573 50.9434 53.6731C47.5767 53.5547 43.7229 56.5617 43.3268 59.9147Z" fill="#C1D1E0"/>
<path d="M44.5811 13.9558H44.5698C44.5398 13.9524 44.5123 13.9374 44.4931 13.914C44.474 13.8906 44.4648 13.8607 44.4673 13.8306C44.5607 12.8222 42.9854 10.8714 42.9695 10.8418C42.9587 10.8304 42.9504 10.8168 42.9451 10.802C42.9398 10.7871 42.9376 10.7713 42.9388 10.7556C42.9399 10.7399 42.9443 10.7246 42.9516 10.7106C42.959 10.6967 42.9691 10.6844 42.9815 10.6746C42.9938 10.6648 43.008 10.6577 43.0233 10.6537C43.0385 10.6496 43.0544 10.6488 43.07 10.6513C43.0856 10.6537 43.1004 10.6594 43.1137 10.6679C43.127 10.6764 43.1383 10.6876 43.1471 10.7007C43.2131 10.7827 44.7951 12.7494 44.695 13.8511C44.6917 13.8793 44.6784 13.9054 44.6575 13.9246C44.6366 13.9439 44.6095 13.9549 44.5811 13.9558ZM60.4151 18.3172C60.3933 18.3172 60.3719 18.3107 60.3537 18.2985C60.3354 18.2864 60.3212 18.2691 60.3127 18.249C60.3062 18.2355 60.3025 18.221 60.3017 18.2061C60.301 18.1912 60.3032 18.1763 60.3083 18.1623C60.3134 18.1483 60.3213 18.1355 60.3314 18.1245C60.3415 18.1136 60.3538 18.1048 60.3673 18.0987C60.5085 18.035 63.8296 16.5212 64.9587 16.5759C64.9888 16.5759 65.0178 16.5879 65.0391 16.6092C65.0605 16.6305 65.0725 16.6595 65.0725 16.6897C65.0725 16.7199 65.0605 16.7488 65.0391 16.7702C65.0178 16.7915 64.9888 16.8035 64.9587 16.8035C63.882 16.758 60.5062 18.2899 60.4721 18.3059C60.4543 18.3141 60.4348 18.318 60.4151 18.3172ZM76.5769 97.3576H76.5269C76.2218 97.3576 75.9145 97.3576 75.6163 97.3439C75.556 97.3421 75.4988 97.3164 75.4574 97.2724C75.416 97.2284 75.3937 97.1698 75.3955 97.1094C75.3974 97.0491 75.4231 96.9919 75.467 96.9505C75.511 96.9091 75.5696 96.8868 75.63 96.8886C75.9305 96.8886 76.2332 96.9023 76.5405 96.9023H76.5769C76.6373 96.9023 76.6952 96.9263 76.7379 96.969C76.7806 97.0117 76.8046 97.0695 76.8046 97.1299C76.8046 97.1903 76.7806 97.2482 76.7379 97.2909C76.6952 97.3336 76.6373 97.3576 76.5769 97.3576ZM72.8961 97.1504H72.8688C71.9788 97.0502 71.0637 96.9228 70.1532 96.7384C70.1233 96.7327 70.0948 96.7212 70.0694 96.7045C70.0439 96.6878 70.022 96.6663 70.0049 96.6411C69.9878 96.616 69.9758 96.5877 69.9696 96.5579C69.9634 96.5281 69.9631 96.4974 69.9688 96.4675C69.9745 96.4376 69.986 96.4091 70.0027 96.3837C70.0194 96.3583 70.0409 96.3363 70.0661 96.3192C70.0912 96.3021 70.1195 96.2901 70.1493 96.2839C70.1791 96.2777 70.2098 96.2775 70.2397 96.2831C71.1388 96.4539 72.0403 96.5927 72.9212 96.6906C72.9816 96.6939 73.0381 96.7211 73.0785 96.7661C73.1188 96.8111 73.1396 96.8704 73.1363 96.9307C73.133 96.9911 73.1058 97.0477 73.0608 97.088C73.0157 97.1284 72.9565 97.1492 72.8961 97.1459V97.1504ZM67.5332 96.1352C67.5143 96.1374 67.4952 96.1374 67.4763 96.1352C66.609 95.9075 65.7258 95.6458 64.8448 95.3567C64.8164 95.3472 64.7901 95.3321 64.7675 95.3125C64.7449 95.2928 64.7264 95.2688 64.7131 95.2419C64.6997 95.2151 64.6918 95.1858 64.6899 95.1559C64.6879 95.126 64.6918 95.096 64.7014 95.0676C64.7201 95.0148 64.7576 94.9707 64.8068 94.9439C64.8559 94.917 64.9132 94.9092 64.9678 94.9219C65.8373 95.2087 66.7137 95.4682 67.5719 95.6936C67.6322 95.7014 67.687 95.7329 67.7242 95.7812C67.7613 95.8294 67.7778 95.8904 67.7699 95.9508C67.7621 96.0112 67.7305 96.0659 67.6823 96.1031C67.6341 96.1402 67.5731 96.1567 67.5127 96.1488L67.5332 96.1352ZM62.3455 94.4325C62.3175 94.4316 62.2898 94.4262 62.2635 94.4166C61.4281 94.0865 60.5768 93.7337 59.7345 93.3467C59.7073 93.3343 59.6828 93.3167 59.6625 93.2948C59.6421 93.2729 59.6262 93.2472 59.6157 93.2192C59.6053 93.1912 59.6004 93.1614 59.6015 93.1315C59.6025 93.1017 59.6095 93.0723 59.6219 93.0451C59.6343 93.0179 59.6519 92.9934 59.6738 92.973C59.6956 92.9526 59.7213 92.9367 59.7493 92.9263C59.7773 92.9158 59.8071 92.911 59.837 92.912C59.8669 92.9131 59.8963 92.92 59.9235 92.9324C60.7589 93.3103 61.6011 93.6677 62.4274 93.9909C62.4554 94.0017 62.481 94.018 62.5027 94.0387C62.5244 94.0595 62.5418 94.0843 62.5539 94.1118C62.566 94.1393 62.5724 94.169 62.573 94.199C62.5736 94.229 62.5682 94.2589 62.5572 94.2868C62.54 94.3314 62.5092 94.3695 62.4692 94.3957C62.4291 94.4218 62.3818 94.4347 62.3341 94.4325H62.3455ZM57.3535 92.1903C57.3179 92.1901 57.2828 92.1815 57.2511 92.1653C56.4498 91.7578 55.6372 91.3208 54.8336 90.8678C54.8076 90.8528 54.7848 90.8329 54.7665 90.8092C54.7482 90.7854 54.7348 90.7583 54.7269 90.7293C54.7191 90.7003 54.7171 90.6701 54.7209 90.6404C54.7248 90.6106 54.7345 90.5819 54.7494 90.5559C54.7644 90.5299 54.7843 90.5071 54.808 90.4888C54.8318 90.4705 54.8589 90.4571 54.8879 90.4492C54.9169 90.4414 54.9471 90.4394 54.9768 90.4432C55.0066 90.4471 55.0353 90.4568 55.0613 90.4717C55.858 90.927 56.6547 91.3549 57.4628 91.7601C57.516 91.7878 57.5561 91.8354 57.5745 91.8925C57.5928 91.9496 57.5878 92.0117 57.5607 92.0651C57.5414 92.1034 57.5117 92.1354 57.4751 92.1575C57.4385 92.1797 57.3963 92.191 57.3535 92.1903ZM52.5915 89.5066C52.5489 89.5067 52.5071 89.4949 52.4708 89.4724C51.7037 88.9989 50.9298 88.4982 50.1649 87.986C50.1401 87.9693 50.1188 87.9478 50.1022 87.9229C50.0857 87.8979 50.0743 87.8699 50.0686 87.8405C50.0628 87.8111 50.063 87.7809 50.069 87.7516C50.075 87.7222 50.0867 87.6944 50.1035 87.6696C50.1372 87.62 50.1891 87.5858 50.2479 87.5743C50.3067 87.5628 50.3677 87.575 50.4176 87.6081C51.1779 88.1157 51.9496 88.6142 52.7121 89.0832C52.7376 89.099 52.7596 89.1197 52.7771 89.144C52.7945 89.1684 52.807 89.1959 52.8138 89.2251C52.8205 89.2543 52.8215 89.2845 52.8165 89.3141C52.8116 89.3436 52.8008 89.3719 52.785 89.3973C52.7636 89.4288 52.7348 89.4545 52.701 89.472C52.6672 89.4895 52.6295 89.4983 52.5915 89.4975V89.5066ZM48.0389 86.4609C47.9906 86.461 47.9436 86.4459 47.9045 86.4176C47.1647 85.8827 46.4272 85.3273 45.7125 84.7696C45.6853 84.7528 45.6619 84.7305 45.6439 84.7041C45.6258 84.6777 45.6136 84.6478 45.6079 84.6163C45.6022 84.5848 45.6032 84.5525 45.6108 84.5215C45.6185 84.4904 45.6325 84.4613 45.6522 84.4361C45.6718 84.4109 45.6965 84.39 45.7247 84.375C45.7529 84.3599 45.7839 84.351 45.8158 84.3487C45.8477 84.3465 45.8797 84.3509 45.9098 84.3619C45.9398 84.3728 45.9672 84.3899 45.9902 84.4122C46.7027 84.9653 47.4356 85.5162 48.1732 86.0488C48.1974 86.0664 48.218 86.0887 48.2336 86.1142C48.2493 86.1398 48.2597 86.1682 48.2644 86.1978C48.269 86.2274 48.2678 86.2576 48.2607 86.2868C48.2537 86.3159 48.2409 86.3433 48.2232 86.3675C48.2021 86.3936 48.1753 86.4147 48.145 86.4293C48.1147 86.4439 48.0816 86.4515 48.048 86.4518L48.0389 86.4609ZM43.7139 83.0965C43.6604 83.0959 43.6088 83.0766 43.5682 83.0418C42.2548 81.9356 41.5195 81.2208 41.5013 81.2208C41.48 81.1996 41.463 81.1745 41.4515 81.1467C41.4399 81.119 41.434 81.0892 41.434 81.0592C41.434 81.0291 41.4399 80.9994 41.4515 80.9716C41.463 80.9439 41.48 80.9187 41.5013 80.8976C41.5439 80.8552 41.6016 80.8314 41.6618 80.8314C41.7219 80.8314 41.7796 80.8552 41.8223 80.8976C41.8223 80.8976 42.5643 81.61 43.8709 82.7072C43.9063 82.7375 43.9315 82.7778 43.9433 82.8229C43.955 82.8679 43.9526 82.9154 43.9365 82.9591C43.9204 83.0027 43.8913 83.0404 43.8531 83.067C43.8149 83.0936 43.7695 83.1079 43.723 83.1079L43.7139 83.0965ZM34.4925 55.2731C34.4363 55.2735 34.3819 55.253 34.3398 55.2155C34.2978 55.1781 34.2711 55.1265 34.2649 55.0705C34.2355 54.7626 34.2218 54.4534 34.2239 54.1441C34.2239 53.6615 34.249 53.0879 34.3013 52.4391C34.306 52.3791 34.3342 52.3234 34.3799 52.2841C34.4255 52.2449 34.4849 52.2253 34.5449 52.2297C34.5748 52.232 34.604 52.2402 34.6307 52.2538C34.6575 52.2674 34.6813 52.2862 34.7007 52.3091C34.7202 52.3319 34.735 52.3584 34.7442 52.387C34.7533 52.4155 34.7568 52.4456 34.7543 52.4755C34.7042 53.1129 34.6792 53.6729 34.6792 54.1441C34.6792 54.481 34.6929 54.7769 34.7179 55.0227C34.721 55.0525 34.7183 55.0826 34.7098 55.1112C34.7014 55.1399 34.6873 55.1667 34.6685 55.1899C34.6497 55.2132 34.6265 55.2325 34.6002 55.2468C34.5739 55.2611 34.545 55.27 34.5153 55.2731H34.4925ZM34.8249 49.9648H34.7953C34.7356 49.9568 34.6814 49.9256 34.6447 49.8778C34.608 49.83 34.5918 49.7696 34.5995 49.7098C34.7088 48.879 34.8454 47.9662 35.0024 46.9965C35.0121 46.9361 35.0453 46.882 35.0949 46.8462C35.1444 46.8103 35.2061 46.7956 35.2665 46.8053C35.3269 46.8149 35.3809 46.8482 35.4168 46.8977C35.4526 46.9472 35.4673 47.0089 35.4577 47.0693C35.3029 48.0345 35.1663 48.9427 35.0571 49.769C35.0492 49.8245 35.0212 49.8752 34.9784 49.9113C34.9355 49.9474 34.8809 49.9664 34.8249 49.9648ZM35.6899 44.5631H35.6489C35.5898 44.552 35.5375 44.5181 35.5034 44.4686C35.4693 44.4191 35.4562 44.3582 35.4668 44.299C35.7536 42.7216 35.979 41.613 35.9812 41.6016C35.9933 41.5412 36.0289 41.4881 36.0801 41.454C36.1313 41.4198 36.194 41.4074 36.2544 41.4195C36.3148 41.4316 36.3679 41.4671 36.402 41.5184C36.4362 41.5696 36.4486 41.6323 36.4365 41.6927C36.4365 41.7041 36.2089 42.8081 35.9221 44.381C35.9113 44.434 35.882 44.4814 35.8395 44.5148C35.7969 44.5481 35.7439 44.5653 35.6899 44.5631ZM35.2005 94.7216C35.169 94.7211 35.138 94.7141 35.1094 94.7011C34.273 94.3167 33.4611 93.881 32.6783 93.3968C32.6264 93.366 32.5888 93.3158 32.5739 93.2573C32.559 93.1989 32.5679 93.1368 32.5986 93.0849C32.6141 93.0591 32.6345 93.0366 32.6587 93.0187C32.6829 93.0008 32.7104 92.9879 32.7396 92.9807C32.7688 92.9735 32.7991 92.9722 32.8289 92.9768C32.8586 92.9814 32.8871 92.9918 32.9128 93.0075C33.6796 93.4814 34.4748 93.9079 35.2938 94.2845C35.3424 94.3052 35.3823 94.3422 35.4067 94.3891C35.431 94.436 35.4383 94.4899 35.4273 94.5415C35.4163 94.5932 35.3876 94.6394 35.3462 94.6723C35.3048 94.7051 35.2533 94.7226 35.2005 94.7216ZM30.484 91.9627C30.4403 91.9626 30.3977 91.9499 30.361 91.9263L30.163 91.7988C29.4801 91.3435 28.7608 90.8883 28.0597 90.4603C28.0296 90.4479 28.0025 90.4292 27.9803 90.4055C27.958 90.3817 27.9411 90.3535 27.9307 90.3226C27.9203 90.2918 27.9167 90.2591 27.92 90.2267C27.9233 90.1943 27.9335 90.1631 27.9499 90.135C27.9664 90.1069 27.9886 90.0826 28.0152 90.0639C28.0418 90.0451 28.0721 90.0323 28.1041 90.0262C28.1361 90.0202 28.169 90.021 28.2006 90.0288C28.2322 90.0365 28.2618 90.0509 28.2873 90.0711C28.993 90.5081 29.7077 90.9702 30.3997 91.4164L30.5955 91.5439C30.6367 91.5705 30.6682 91.6097 30.6853 91.6557C30.7025 91.7018 30.7042 91.7521 30.6904 91.7992C30.6766 91.8463 30.6479 91.8876 30.6086 91.9171C30.5694 91.9466 30.5217 91.9626 30.4726 91.9627H30.484ZM18.0439 89.3131C18.0092 89.313 17.9749 89.3049 17.9437 89.2896C17.9125 89.2742 17.8853 89.2518 17.8641 89.2243C17.8274 89.1766 17.8111 89.1162 17.8188 89.0565C17.8264 88.9968 17.8575 88.9425 17.9051 88.9056C18.6819 88.3607 19.5631 87.9825 20.4932 87.7948C20.5233 87.786 20.5548 87.7835 20.5858 87.7874C20.6168 87.7913 20.6467 87.8016 20.6736 87.8176C20.7005 87.8336 20.7238 87.855 20.7421 87.8804C20.7603 87.9058 20.7731 87.9347 20.7797 87.9653C20.7863 87.9959 20.7865 88.0275 20.7803 88.0582C20.7742 88.0888 20.7617 88.1179 20.7438 88.1436C20.7259 88.1692 20.7029 88.1909 20.6762 88.2073C20.6496 88.2236 20.6198 88.2343 20.5888 88.2387C19.7262 88.4165 18.908 88.7656 18.1828 89.2653C18.143 89.2961 18.0942 89.3129 18.0439 89.3131ZM25.8061 89.1469C25.7706 89.1462 25.7356 89.1377 25.7037 89.1219C25.4556 88.9944 25.2097 88.8737 24.9753 88.7668C24.4142 88.5044 23.8222 88.3139 23.2134 88.2C23.153 88.1891 23.0995 88.1547 23.0645 88.1043C23.0295 88.0539 23.0159 87.9917 23.0268 87.9314C23.0376 87.871 23.072 87.8174 23.1224 87.7824C23.1728 87.7474 23.235 87.7338 23.2954 87.7447C23.9411 87.8644 24.5691 88.0656 25.1642 88.3434C25.4055 88.4549 25.6582 88.571 25.9108 88.7076C25.9564 88.7309 25.9927 88.7689 26.014 88.8154C26.0353 88.8619 26.0403 88.9143 26.0282 88.964C26.0161 89.0137 25.9876 89.0579 25.9473 89.0894C25.907 89.121 25.8573 89.138 25.8061 89.1378V89.1469ZM45.239 43.0835H45.2253C38.5353 42.6738 33.9622 38.0164 33.9166 37.9686C33.8916 37.9486 33.871 37.9235 33.8564 37.8949C33.8417 37.8664 33.8332 37.8351 33.8315 37.8031C33.8298 37.771 33.8349 37.739 33.8464 37.7091C33.858 37.6791 33.8757 37.652 33.8985 37.6294C33.9212 37.6068 33.9485 37.5892 33.9785 37.5779C34.0085 37.5666 34.0406 37.5617 34.0726 37.5637C34.1047 37.5656 34.1359 37.5743 34.1643 37.5892C34.1928 37.604 34.2177 37.6248 34.2376 37.6499C34.2831 37.6955 38.7379 42.2276 45.2481 42.6282C45.278 42.63 45.3073 42.6376 45.3342 42.6507C45.3612 42.6638 45.3853 42.682 45.4052 42.7044C45.4251 42.7269 45.4403 42.753 45.4501 42.7813C45.4598 42.8096 45.4639 42.8396 45.4621 42.8695C45.4586 42.9267 45.4338 42.9805 45.3924 43.0202C45.3511 43.0598 45.2963 43.0825 45.239 43.0835Z" fill="#161813"/>
<path d="M104.02 57.1809L110 53.9076L106.215 59.0907L108.602 62.1865L105.809 61.7677L103.813 64.6472L102.994 60.65L98.7573 60.625L102.047 58.0891L100.647 54.5381L104.02 57.1809ZM22.2437 9.09158L21.5859 4.91L20.4728 8.73875H18.0439L19.3096 9.95203L18.6517 12.0257L20.928 10.9126L22.5465 12.9863V10.4073L24.8228 9.74943L22.2437 9.09158ZM100.282 26.7262L100.134 22.4968L98.5684 26.1616L96.1578 25.868L97.2664 27.2247L96.3627 29.2051L98.7573 28.3765L100.112 30.63L100.424 28.0692L102.764 27.6913L100.282 26.7262ZM70.201 3.64665L64.0709 4.07004L69.4658 6.16197L69.1608 9.67432L71.0751 7.99895L73.9911 9.20995L72.6685 5.77955L75.8713 3.699L72.1427 3.37349L71.478 0L70.201 3.64665Z" fill="#FFCD42"/>
</g>
<defs>
<filter id="filter0_d_69_542" x="0" y="0" width="114" height="110.425" filterUnits="userSpaceOnUse" color-interpolation-filters="sRGB">
<feFlood flood-opacity="0" result="BackgroundImageFix"/>
<feColorMatrix in="SourceAlpha" type="matrix" values="0 0 0 0 0 0 0 0 0 0 0 0 0 0 0 0 0 0 127 0" result="hardAlpha"/>
<feOffset dy="4"/>
<feGaussianBlur stdDeviation="2"/>
<feComposite in2="hardAlpha" operator="out"/>
<feColorMatrix type="matrix" values="0 0 0 0 0 0 0 0 0 0 0 0 0 0 0 0 0 0 0.5 0"/>
<feBlend mode="normal" in2="BackgroundImageFix" result="effect1_dropShadow_69_542"/>
<feBlend mode="normal" in="SourceGraphic" in2="effect1_dropShadow_69_542" result="shape"/>
</filter>
</defs>
</svg>
