<svg width="73" height="73" viewBox="0 0 73 73" fill="none" xmlns="http://www.w3.org/2000/svg">
<g filter="url(#filter0_d_69_529)">
<path d="M31.4498 51.0951C31.0023 51.0951 30.5845 50.9757 30.1966 50.7072C29.57 50.2895 29.212 49.6032 29.212 48.8572C29.212 48.4096 29.1821 47.9322 29.1225 47.4548C28.8539 45.3362 27.8991 43.4862 26.2878 41.875C24.6765 40.2637 22.6773 39.2492 20.5289 38.9806C20.1709 38.9508 19.6636 38.9209 19.1862 38.9508C18.4104 39.0105 17.6943 38.6822 17.2467 38.0556C16.7991 37.4588 16.6797 36.6532 16.9185 35.9371C17.366 34.7137 18.0225 33.6097 18.7983 32.7145L23.3934 26.9258C31.3006 17.0493 47.324 5.1735 59.0506 0.459001C61.557 -0.495835 64.1828 0.0710994 66.003 1.86142C67.8828 3.74125 68.4497 6.42673 67.4651 8.8735C62.7506 20.6299 50.9046 36.6234 41.028 44.5306L35.1498 49.2451C34.0458 50.0507 33.1506 50.558 32.2555 50.9161C32.0168 51.0354 31.7184 51.0951 31.4498 51.0951ZM22.8265 34.8927C25.333 35.5492 27.5708 36.8621 29.4507 38.7419C31.3305 40.5919 32.5837 42.7403 33.2103 45.1274L38.253 41.0693C47.6224 33.5798 58.8715 18.392 63.3175 7.23237C63.7651 6.12834 63.1385 5.35254 62.8401 5.08399C62.6312 4.87512 61.8554 4.21867 60.6619 4.66625C49.5619 9.14204 34.374 20.3912 26.8547 29.7605L22.8265 34.8927Z" fill="#303641"/>
<path d="M12.5008 64.1648C10.2629 64.1648 8.11448 63.2697 6.50319 61.6584C4.6532 59.8084 3.75804 57.2423 4.05642 54.6165L4.86207 47.2762C5.63787 39.9955 11.6056 34.5947 19.0056 34.4455C19.5725 34.4157 20.3185 34.4455 21.0048 34.5052C24.2572 34.923 27.1515 36.3851 29.4789 38.7125C31.7766 41.01 33.1491 43.7552 33.5669 46.8286C33.6564 47.485 33.7161 48.2012 33.7161 48.8278C33.7161 52.7665 32.1943 56.4366 29.4491 59.2116C27.1515 61.4793 24.1975 62.8818 20.8556 63.2995L13.4854 64.1051C13.1572 64.135 12.829 64.1648 12.5008 64.1648ZM19.5725 38.9512C19.4532 38.9512 19.304 38.9512 19.1846 38.9512C14.679 39.0407 9.90479 42.1141 9.30802 47.7834L8.50238 55.1237C8.35318 56.3769 8.80076 57.6003 9.66608 58.4955C10.5314 59.3608 11.7548 59.8084 12.9782 59.6592L20.3185 58.8535C22.616 58.5552 24.6749 57.6003 26.2265 56.0487C28.1362 54.139 29.2104 51.5729 29.2104 48.8278C29.2104 48.3802 29.1805 47.9028 29.1209 47.4253C28.8523 45.3068 27.8975 43.4568 26.2862 41.8455C24.6749 40.2342 22.6757 39.2197 20.5273 38.9512C20.2886 38.9512 19.9306 38.9512 19.5725 38.9512Z" fill="#303641"/>
<path d="M42.8181 41.6968C41.5947 41.6968 40.5802 40.6823 40.5802 39.4589C40.5802 32.8944 35.2391 27.5831 28.7043 27.5831C27.4809 27.5831 26.4664 26.5686 26.4664 25.3453C26.4664 24.1219 27.4511 23.1074 28.6745 23.1074C37.6858 23.1074 45.0261 30.4476 45.0261 39.4589C45.056 40.7121 44.0415 41.6968 42.8181 41.6968Z" fill="#303641"/>
<path d="M47.1166 64.1054C44.3416 64.1054 41.5666 62.7925 38.911 60.1369C38.0456 59.2716 38.0456 57.8393 38.911 56.974C39.7763 56.1087 41.2085 56.1087 42.0738 56.974C45.5948 60.495 48.6085 60.495 52.1295 56.974L60.9617 48.1418C64.5125 44.591 64.5125 41.5773 60.9617 38.0563L58.7536 35.8781C57.8883 35.0128 57.8585 33.5805 58.7238 32.7152C59.5891 31.82 61.0214 31.82 61.8867 32.6853L64.0948 34.8636C69.406 40.1748 69.406 45.9934 64.0948 51.3047L55.2625 60.1369C52.6666 62.7627 49.8916 64.1054 47.1166 64.1054Z" fill="#303641"/>
<path d="M9.60756 29.8795C9.04062 29.8795 8.44385 29.6706 8.02611 29.223C2.7745 23.9415 2.7745 18.0932 8.02611 12.8117L16.8583 3.97948C22.1099 -1.27213 28.018 -1.27213 33.2697 3.97948L35.4777 6.18754C36.3431 7.05286 36.3431 8.48511 35.4777 9.35043C34.6124 10.2158 33.1802 10.2158 32.3148 9.35043L30.0769 7.14237C26.5559 3.62142 23.5124 3.62142 20.0212 7.14237L11.189 15.9746C7.66805 19.5254 7.66805 22.5391 11.189 26.0899C12.0543 26.9553 12.0543 28.3876 11.189 29.2529C10.7414 29.6706 10.1745 29.8795 9.60756 29.8795Z" fill="#303641"/>
<path d="M22.8573 21.0479C22.2903 21.0479 21.7234 20.8391 21.2758 20.3915C20.4105 19.5262 20.4105 18.0939 21.2758 17.2286L32.316 6.1883C33.1813 5.32298 34.6136 5.32298 35.4789 6.1883C36.3442 7.05362 36.3442 8.48587 35.4789 9.35119L24.4387 20.3915C23.9911 20.8391 23.4242 21.0479 22.8573 21.0479Z" fill="#303641"/>
<path d="M51.5304 45.3072C50.9634 45.3072 50.3965 45.0983 49.9489 44.6507C49.0836 43.7854 49.0836 42.3531 49.9489 41.4878L58.7811 32.6556C59.6465 31.7903 61.0787 31.7903 61.944 32.6556C62.8094 33.5209 62.8094 34.9532 61.944 35.8185L53.1118 44.6507C52.6941 45.0983 52.1271 45.3072 51.5304 45.3072Z" fill="#303641"/>
</g>
<defs>
<filter id="filter0_d_69_529" x="0" y="0" width="72.0782" height="72.1648" filterUnits="userSpaceOnUse" color-interpolation-filters="sRGB">
<feFlood flood-opacity="0" result="BackgroundImageFix"/>
<feColorMatrix in="SourceAlpha" type="matrix" values="0 0 0 0 0 0 0 0 0 0 0 0 0 0 0 0 0 0 127 0" result="hardAlpha"/>
<feOffset dy="4"/>
<feGaussianBlur stdDeviation="2"/>
<feComposite in2="hardAlpha" operator="out"/>
<feColorMatrix type="matrix" values="0 0 0 0 0 0 0 0 0 0 0 0 0 0 0 0 0 0 0.5 0"/>
<feBlend mode="normal" in2="BackgroundImageFix" result="effect1_dropShadow_69_529"/>
<feBlend mode="normal" in="SourceGraphic" in2="effect1_dropShadow_69_529" result="shape"/>
</filter>
</defs>
</svg>
