<svg xmlns="http://www.w3.org/2000/svg" width="33" height="24" viewBox="0 0 33 24" fill="none">
<path d="M0.101471 3.11C0.306072 2.22649 0.809036 1.43763 1.52799 0.872617C2.24694 0.307607 3.13927 -6.09889e-05 4.05882 9.06828e-09H28.4118C29.3313 -6.09889e-05 30.2236 0.307607 30.9426 0.872617C31.6616 1.43763 32.1645 2.22649 32.3691 3.11L16.2353 12.828L0.101471 3.11ZM0 5.394V19.602L11.7767 12.486L0 5.394ZM13.7209 13.66L0.387618 21.714C0.717045 22.3986 1.23698 22.9769 1.88691 23.3816C2.53684 23.7863 3.29003 24.0007 4.05882 24H28.4118C29.1804 24.0002 29.9333 23.7852 30.5829 23.3802C31.2325 22.9751 31.752 22.3966 32.0809 21.712L18.7477 13.658L16.2353 15.172L13.7209 13.658V13.66ZM20.6939 12.488L32.4706 19.602V5.394L20.6939 12.486V12.488Z" fill="#FEFEFE"/>
</svg>