<svg width="45" height="35" viewBox="0 0 45 35" fill="none" xmlns="http://www.w3.org/2000/svg">
<g filter="url(#filter0_d_35_252)">
<path d="M5.06594 3.60775C5.29047 2.63818 5.84243 1.77248 6.63141 1.15244C7.42039 0.532393 8.39963 0.194757 9.40875 0.194824H36.1337C37.1429 0.194757 38.1221 0.532393 38.9111 1.15244C39.7001 1.77248 40.252 2.63818 40.4765 3.60775L22.7712 14.2723L5.06594 3.60775ZM4.95459 6.11421V21.7061L17.8783 13.897L4.95459 6.11421ZM20.0119 15.1853L5.37996 24.0238C5.74148 24.7751 6.31206 25.4097 7.02529 25.8538C7.73852 26.2979 8.56508 26.5333 9.40875 26.5325H36.1337C36.9773 26.5327 37.8035 26.2968 38.5163 25.8523C39.2292 25.4078 39.7993 24.7729 40.1603 24.0216L25.5284 15.1831L22.7712 16.8446L20.0119 15.1831V15.1853ZM27.6641 13.8992L40.5879 21.7061V6.11421L27.6641 13.897V13.8992Z" fill="#FEFEFE"/>
</g>
<defs>
<filter id="filter0_d_35_252" x="0.95459" y="0.194824" width="43.6333" height="34.3377" filterUnits="userSpaceOnUse" color-interpolation-filters="sRGB">
<feFlood flood-opacity="0" result="BackgroundImageFix"/>
<feColorMatrix in="SourceAlpha" type="matrix" values="0 0 0 0 0 0 0 0 0 0 0 0 0 0 0 0 0 0 127 0" result="hardAlpha"/>
<feOffset dy="4"/>
<feGaussianBlur stdDeviation="2"/>
<feComposite in2="hardAlpha" operator="out"/>
<feColorMatrix type="matrix" values="0 0 0 0 0 0 0 0 0 0 0 0 0 0 0 0 0 0 0.5 0"/>
<feBlend mode="normal" in2="BackgroundImageFix" result="effect1_dropShadow_35_252"/>
<feBlend mode="normal" in="SourceGraphic" in2="effect1_dropShadow_35_252" result="shape"/>
</filter>
</defs>
</svg>
