<svg width="65" height="57" viewBox="0 0 65 57" fill="none" xmlns="http://www.w3.org/2000/svg">
<g clip-path="url(#clip0_69_468)" filter="url(#filter0_d_69_468)">
<path d="M60.0796 44.1153C58.0506 44.6313 56.7956 44.138 55.6695 42.4471L47.6616 31.3679L46.5042 29.8339L37.1524 42.4838C36.0838 44.0055 34.963 44.6679 32.9689 44.1293L44.9441 28.0542L33.7951 13.534C35.7126 13.161 37.0373 13.351 38.2139 15.068L46.5199 26.2849L54.8869 15.129C55.9589 13.6072 57.1111 13.0285 59.0355 13.5898L54.7126 19.3212L48.8557 26.9473C48.1584 27.8189 48.2543 28.415 48.8958 29.257L60.0796 44.1153ZM4.31375 27.7858L5.29338 22.9678C7.96036 13.4329 18.8897 9.47082 26.427 15.3626C30.8318 18.8279 31.9265 23.7295 31.7086 29.2204H6.87962C6.50659 39.1038 13.6203 45.0688 22.6897 42.0253C25.8709 40.9568 27.7448 38.4659 28.6826 35.3492C29.1584 33.7873 29.9463 33.5433 31.414 33.9895C30.6645 37.8872 28.9737 41.1433 25.4003 43.181C20.0611 46.2315 12.4402 45.2449 8.431 41.0056C6.04292 38.546 5.05632 35.4294 4.61357 32.0965C4.54384 31.5457 4.40439 31.021 4.2998 30.4928C4.3091 29.5911 4.31375 28.6893 4.31375 27.7875V27.7858ZM6.92494 27.1234H29.3624C29.216 19.9766 24.7658 14.9006 18.684 14.8571C12.0079 14.8048 7.2143 19.7605 6.92494 27.1234Z" fill="black"/>
</g>
<defs>
<filter id="filter0_d_69_468" x="0.299805" y="0.50769" width="63.7798" height="63.7798" filterUnits="userSpaceOnUse" color-interpolation-filters="sRGB">
<feFlood flood-opacity="0" result="BackgroundImageFix"/>
<feColorMatrix in="SourceAlpha" type="matrix" values="0 0 0 0 0 0 0 0 0 0 0 0 0 0 0 0 0 0 127 0" result="hardAlpha"/>
<feOffset dy="4"/>
<feGaussianBlur stdDeviation="2"/>
<feComposite in2="hardAlpha" operator="out"/>
<feColorMatrix type="matrix" values="0 0 0 0 0 0 0 0 0 0 0 0 0 0 0 0 0 0 0.5 0"/>
<feBlend mode="normal" in2="BackgroundImageFix" result="effect1_dropShadow_69_468"/>
<feBlend mode="normal" in="SourceGraphic" in2="effect1_dropShadow_69_468" result="shape"/>
</filter>
<clipPath id="clip0_69_468">
<rect width="55.7798" height="55.7798" fill="white" transform="translate(4.2998 0.50769)"/>
</clipPath>
</defs>
</svg>
