<svg width="78" height="78" viewBox="0 0 78 78" fill="none" xmlns="http://www.w3.org/2000/svg">
<g filter="url(#filter0_d_69_520)">
<path d="M61.4 47.8V17.4C61.4 13.88 58.52 11 55 11H37.4" stroke="#303641" stroke-width="4.8" stroke-linecap="round" stroke-linejoin="round"/>
<path d="M45.3999 3L35.7999 11L45.3999 19" stroke="#303641" stroke-width="4.8" stroke-linecap="round" stroke-linejoin="round"/>
<path d="M61.3999 67C66.702 67 70.9999 62.7021 70.9999 57.4C70.9999 52.098 66.702 47.8 61.3999 47.8C56.0978 47.8 51.7999 52.098 51.7999 57.4C51.7999 62.7021 56.0978 67 61.3999 67Z" stroke="#303641" stroke-width="4.8" stroke-linecap="round" stroke-linejoin="round"/>
<path d="M16.6 35V52.6C16.6 56.12 19.48 59 23 59H40.6" stroke="#303641" stroke-width="4.8" stroke-linecap="round" stroke-linejoin="round"/>
<path d="M32.6001 67L42.2001 59L32.6001 51" stroke="#303641" stroke-width="4.8" stroke-linecap="round" stroke-linejoin="round"/>
<path d="M16.6 22.2C21.9019 22.2 26.2 17.9019 26.2 12.6C26.2 7.29808 21.9019 3 16.6 3C11.2981 3 7 7.29808 7 12.6C7 17.9019 11.2981 22.2 16.6 22.2Z" stroke="#303641" stroke-width="4.8" stroke-linecap="round" stroke-linejoin="round"/>
</g>
<defs>
<filter id="filter0_d_69_520" x="0.599976" y="0.599854" width="76.7999" height="76.8003" filterUnits="userSpaceOnUse" color-interpolation-filters="sRGB">
<feFlood flood-opacity="0" result="BackgroundImageFix"/>
<feColorMatrix in="SourceAlpha" type="matrix" values="0 0 0 0 0 0 0 0 0 0 0 0 0 0 0 0 0 0 127 0" result="hardAlpha"/>
<feOffset dy="4"/>
<feGaussianBlur stdDeviation="2"/>
<feComposite in2="hardAlpha" operator="out"/>
<feColorMatrix type="matrix" values="0 0 0 0 0 0 0 0 0 0 0 0 0 0 0 0 0 0 0.5 0"/>
<feBlend mode="normal" in2="BackgroundImageFix" result="effect1_dropShadow_69_520"/>
<feBlend mode="normal" in="SourceGraphic" in2="effect1_dropShadow_69_520" result="shape"/>
</filter>
</defs>
</svg>
