<svg width="46" height="64" viewBox="0 0 46 64" fill="none" xmlns="http://www.w3.org/2000/svg">
<g clip-path="url(#clip0_69_482)" filter="url(#filter0_d_69_482)">
<path d="M23.1713 27.8899C23.1713 25.4243 24.1507 23.0596 25.8942 21.3162C27.6376 19.5727 30.0023 18.5933 32.4679 18.5933C34.9335 18.5933 37.2982 19.5727 39.0416 21.3162C40.7851 23.0596 41.7645 25.4243 41.7645 27.8899C41.7645 30.3555 40.7851 32.7202 39.0416 34.4636C37.2982 36.2071 34.9335 37.1865 32.4679 37.1865C30.0023 37.1865 27.6376 36.2071 25.8942 34.4636C24.1507 32.7202 23.1713 30.3555 23.1713 27.8899Z" fill="#1ABCFE"/>
<path d="M4.578 46.4832C4.578 44.0175 5.55747 41.6529 7.30092 39.9094C9.04438 38.166 11.409 37.1865 13.8746 37.1865H23.1713V46.4832C23.1713 48.9488 22.1918 51.3134 20.4484 53.0569C18.7049 54.8003 16.3403 55.7798 13.8746 55.7798C11.409 55.7798 9.04438 54.8003 7.30092 53.0569C5.55747 51.3134 4.578 48.9488 4.578 46.4832Z" fill="#0ACF83"/>
<path d="M23.1713 0V18.5933H32.4679C34.9335 18.5933 37.2982 17.6138 39.0416 15.8703C40.7851 14.1269 41.7645 11.7623 41.7645 9.29664C41.7645 6.83101 40.7851 4.46638 39.0416 2.72292C37.2982 0.979464 34.9335 0 32.4679 0L23.1713 0Z" fill="#FF7262"/>
<path d="M4.578 9.29664C4.578 11.7623 5.55747 14.1269 7.30092 15.8703C9.04438 17.6138 11.409 18.5933 13.8746 18.5933H23.1713V0H13.8746C11.409 0 9.04438 0.979464 7.30092 2.72292C5.55747 4.46638 4.578 6.83101 4.578 9.29664Z" fill="#F24E1E"/>
<path d="M4.578 27.8899C4.578 30.3555 5.55747 32.7202 7.30092 34.4636C9.04438 36.2071 11.409 37.1865 13.8746 37.1865H23.1713V18.5933H13.8746C11.409 18.5933 9.04438 19.5727 7.30092 21.3162C5.55747 23.0596 4.578 25.4243 4.578 27.8899Z" fill="#A259FF"/>
</g>
<defs>
<filter id="filter0_d_69_482" x="0.578003" y="0" width="45.1865" height="63.7798" filterUnits="userSpaceOnUse" color-interpolation-filters="sRGB">
<feFlood flood-opacity="0" result="BackgroundImageFix"/>
<feColorMatrix in="SourceAlpha" type="matrix" values="0 0 0 0 0 0 0 0 0 0 0 0 0 0 0 0 0 0 127 0" result="hardAlpha"/>
<feOffset dy="4"/>
<feGaussianBlur stdDeviation="2"/>
<feComposite in2="hardAlpha" operator="out"/>
<feColorMatrix type="matrix" values="0 0 0 0 0 0 0 0 0 0 0 0 0 0 0 0 0 0 0.25 0"/>
<feBlend mode="normal" in2="BackgroundImageFix" result="effect1_dropShadow_69_482"/>
<feBlend mode="normal" in="SourceGraphic" in2="effect1_dropShadow_69_482" result="shape"/>
</filter>
<clipPath id="clip0_69_482">
<rect width="37.1865" height="55.7798" fill="white" transform="translate(4.578)"/>
</clipPath>
</defs>
</svg>
