<svg width="85" height="86" viewBox="0 0 85 86" fill="none" xmlns="http://www.w3.org/2000/svg">
<g filter="url(#filter0_d_69_606)">
<mask id="mask0_69_606" style="mask-type:luminance" maskUnits="userSpaceOnUse" x="4" y="0" width="77" height="78">
<path d="M4 77.0241V0H81V77.0241H4Z" fill="#73BBA3"/>
</mask>
<g mask="url(#mask0_69_606)">
<path fill-rule="evenodd" clip-rule="evenodd" d="M81 38.4878C81 59.7706 63.7466 77.0239 42.4639 77.0239C21.1811 77.0239 3.92773 59.7706 3.92773 38.4878C3.92773 17.205 21.1811 -0.0483398 42.4639 -0.0483398C63.7466 -0.0483398 81 17.205 81 38.4878Z" fill="#FE89A7"/>
</g>
<path fill-rule="evenodd" clip-rule="evenodd" d="M64.0934 57.7558C61.998 57.7558 59.7654 56.6853 58.1191 55.2293C53.9645 51.5551 53.543 47.8798 42.4638 47.8798C31.3847 47.8798 30.9632 51.5551 26.8085 55.2293C25.1623 56.6853 22.9296 57.7558 20.8342 57.7558C17.6405 57.7558 14.766 55.2715 14.766 47.8798C14.766 35.6385 20.3056 28.2841 20.3056 28.2841C20.3056 28.2841 23.044 23.5984 27.2686 23.5984C28.9196 23.5984 30.7994 24.3149 32.8298 26.3068C35.4033 28.8309 38.9342 30.0929 42.4638 30.0929C45.9947 30.0929 49.5244 28.8309 52.0979 26.3068C54.1282 24.3149 56.0069 23.5984 57.6591 23.5984C61.8836 23.5984 64.6221 28.2841 64.6221 28.2841C64.6221 28.2841 70.1617 35.6385 70.1617 47.8798C70.1617 55.2715 67.2871 57.7558 64.0934 57.7558Z" fill="#FE89A7"/>
<path fill-rule="evenodd" clip-rule="evenodd" d="M42.4638 44.2672C53.543 44.2672 53.9645 47.9426 58.1191 51.6168C62.2738 55.2909 70.1617 56.5096 70.1617 44.2672C70.1617 32.0259 64.6221 24.6716 64.6221 24.6716C64.6221 24.6716 59.3234 15.6071 52.0979 22.6942C46.9509 27.7424 37.9768 27.7424 32.8298 22.6942C25.6043 15.6071 20.3056 24.6716 20.3056 24.6716C20.3056 24.6716 14.766 32.0259 14.766 44.2672C14.766 56.5096 22.6539 55.2909 26.8085 51.6168C30.9632 47.9426 31.3847 44.2672 42.4638 44.2672Z" fill="#4C5665"/>
<path fill-rule="evenodd" clip-rule="evenodd" d="M59.3235 40.8963C59.3307 41.217 59.2738 41.536 59.1561 41.8344C59.0384 42.1329 58.8623 42.4048 58.638 42.6342C58.4138 42.8637 58.1459 43.046 57.8503 43.1705C57.5546 43.295 57.237 43.3592 56.9162 43.3593C56.5954 43.3593 56.2778 43.2953 55.982 43.171C55.6863 43.0466 55.4184 42.8644 55.194 42.6351C54.9696 42.4058 54.7934 42.1339 54.6755 41.8356C54.5576 41.5372 54.5006 41.2182 54.5077 40.8975C54.5216 40.2682 54.7813 39.6694 55.2312 39.2292C55.6812 38.789 56.2855 38.5424 56.915 38.5422C57.5444 38.5421 58.1489 38.7883 58.5991 39.2283C59.0492 39.6683 59.3093 40.267 59.3235 40.8963Z" fill="#DEDECA"/>
<path fill-rule="evenodd" clip-rule="evenodd" d="M64.1405 34.8753C64.1478 35.196 64.0908 35.515 63.9731 35.8134C63.8554 36.1119 63.6793 36.3838 63.455 36.6132C63.2308 36.8427 62.963 37.025 62.6673 37.1495C62.3716 37.274 62.054 37.3382 61.7332 37.3383C61.4124 37.3383 61.0948 37.2743 60.799 37.15C60.5033 37.0256 60.2354 36.8434 60.011 36.6141C59.7867 36.3848 59.6104 36.1129 59.4925 35.8146C59.3747 35.5162 59.3176 35.1972 59.3247 34.8765C59.3386 34.2472 59.5983 33.6484 60.0482 33.2082C60.4982 32.768 61.1026 32.5214 61.732 32.5212C62.3615 32.5211 62.966 32.7674 63.4161 33.2073C63.8662 33.6473 64.1263 34.246 64.1405 34.8753Z" fill="#DEDECA"/>
<path fill-rule="evenodd" clip-rule="evenodd" d="M26.8084 42.6967C26.8084 43.6974 25.9992 44.5091 25.0021 44.5091C24.0049 44.5091 23.1957 43.6974 23.1957 42.6967V34.279C23.1957 33.2782 24.0049 32.4666 25.0021 32.4666C25.9992 32.4666 26.8084 33.2782 26.8084 34.279V42.6967Z" fill="#DEDECA"/>
<path fill-rule="evenodd" clip-rule="evenodd" d="M20.7934 40.2944C20.3135 40.295 19.8531 40.1051 19.5132 39.7664C19.1734 39.4277 18.9819 38.9679 18.981 38.488C18.981 37.4909 19.7926 36.6816 20.7934 36.6816H29.2111C30.2118 36.6816 31.0235 37.4909 31.0235 38.488C31.0235 39.4851 30.2118 40.2944 29.2111 40.2944H20.7934Z" fill="#DEDECA"/>
</g>
<defs>
<filter id="filter0_d_69_606" x="0" y="0" width="85" height="85.0239" filterUnits="userSpaceOnUse" color-interpolation-filters="sRGB">
<feFlood flood-opacity="0" result="BackgroundImageFix"/>
<feColorMatrix in="SourceAlpha" type="matrix" values="0 0 0 0 0 0 0 0 0 0 0 0 0 0 0 0 0 0 127 0" result="hardAlpha"/>
<feOffset dy="4"/>
<feGaussianBlur stdDeviation="2"/>
<feComposite in2="hardAlpha" operator="out"/>
<feColorMatrix type="matrix" values="0 0 0 0 0 0 0 0 0 0 0 0 0 0 0 0 0 0 0.5 0"/>
<feBlend mode="normal" in2="BackgroundImageFix" result="effect1_dropShadow_69_606"/>
<feBlend mode="normal" in="SourceGraphic" in2="effect1_dropShadow_69_606" result="shape"/>
</filter>
</defs>
</svg>
