<svg width="41" height="40" viewBox="0 0 41 40" fill="none" xmlns="http://www.w3.org/2000/svg">
<g filter="url(#filter0_d_35_180)">
<path d="M20.3326 0C11.4129 0 4.18835 7.25053 4.18835 16.2023C4.18835 23.3718 8.80965 29.4274 15.227 31.5742C16.0342 31.716 16.3369 31.2299 16.3369 30.8046C16.3369 30.4198 16.3167 29.1439 16.3167 27.787C12.2605 28.5363 11.2111 26.7946 10.8882 25.8832C10.7066 25.4174 9.91957 23.9794 9.23344 23.5946C8.66839 23.2908 7.86118 22.5415 9.21326 22.5212C10.4846 22.5009 11.3927 23.6959 11.6954 24.1819C13.1484 26.6325 15.4692 25.9439 16.3975 25.5186C16.5387 24.4655 16.9625 23.7566 17.4267 23.3516C13.8346 22.9465 10.081 21.5491 10.081 15.3517C10.081 13.5897 10.7066 12.1315 11.7358 10.9973C11.5744 10.5923 11.0093 8.93152 11.8972 6.7037C11.8972 6.7037 13.2493 6.27839 16.3369 8.36444C17.6285 7.99989 19.0007 7.81761 20.373 7.81761C21.7453 7.81761 23.1175 7.99989 24.4091 8.36444C27.4967 6.25814 28.8487 6.7037 28.8487 6.7037C29.7367 8.93152 29.1716 10.5923 29.0102 10.9973C30.0394 12.1315 30.665 13.5694 30.665 15.3517C30.665 21.5693 26.8912 22.9465 23.2991 23.3516C23.8844 23.8579 24.3889 24.83 24.3889 26.349C24.3889 28.5161 24.3687 30.2578 24.3687 30.8046C24.3687 31.2299 24.6714 31.7363 25.4786 31.5742C28.6837 30.4887 31.4688 28.4216 33.4418 25.664C35.4148 22.9064 36.4763 19.5972 36.4769 16.2023C36.4769 7.25053 29.2523 0 20.3326 0Z" fill="#FEFEFE"/>
</g>
<defs>
<filter id="filter0_d_35_180" x="0.188354" y="0" width="40.2886" height="39.6052" filterUnits="userSpaceOnUse" color-interpolation-filters="sRGB">
<feFlood flood-opacity="0" result="BackgroundImageFix"/>
<feColorMatrix in="SourceAlpha" type="matrix" values="0 0 0 0 0 0 0 0 0 0 0 0 0 0 0 0 0 0 127 0" result="hardAlpha"/>
<feOffset dy="4"/>
<feGaussianBlur stdDeviation="2"/>
<feComposite in2="hardAlpha" operator="out"/>
<feColorMatrix type="matrix" values="0 0 0 0 0 0 0 0 0 0 0 0 0 0 0 0 0 0 0.5 0"/>
<feBlend mode="normal" in2="BackgroundImageFix" result="effect1_dropShadow_35_180"/>
<feBlend mode="normal" in="SourceGraphic" in2="effect1_dropShadow_35_180" result="shape"/>
</filter>
</defs>
</svg>
