<svg xmlns="http://www.w3.org/2000/svg" width="30" height="29" viewBox="0 0 30 29" fill="none">
<path d="M14.7114 0C6.58333 0 0 6.60699 0 14.7642C0 21.2974 4.21112 26.8155 10.0589 28.7718C10.7945 28.901 11.0703 28.4581 11.0703 28.0705C11.0703 27.7198 11.0519 26.5572 11.0519 25.3207C7.35568 26.0035 6.39944 24.4163 6.10521 23.5859C5.93971 23.1614 5.22253 21.8511 4.5973 21.5004C4.0824 21.2236 3.34683 20.5407 4.57891 20.5223C5.73743 20.5038 6.56494 21.5927 6.84078 22.0356C8.1648 24.2687 10.2796 23.6412 11.1255 23.2537C11.2542 22.294 11.6404 21.6481 12.0633 21.2789C8.79003 20.9098 5.36964 19.6364 5.36964 13.9891C5.36964 12.3835 5.93971 11.0547 6.87756 10.0212C6.73044 9.65212 6.21555 8.13878 7.02467 6.1087C7.02467 6.1087 8.25675 5.72114 11.0703 7.62203C12.2472 7.28984 13.4977 7.12374 14.7481 7.12374C15.9986 7.12374 17.2491 7.28984 18.426 7.62203C21.2395 5.70268 22.4716 6.1087 22.4716 6.1087C23.2807 8.13878 22.7658 9.65212 22.6187 10.0212C23.5566 11.0547 24.1266 12.365 24.1266 13.9891C24.1266 19.6549 20.6878 20.9098 17.4146 21.2789C17.9478 21.7403 18.4076 22.6262 18.4076 24.0103C18.4076 25.985 18.3892 27.5722 18.3892 28.0705C18.3892 28.4581 18.665 28.9194 19.4006 28.7718C22.3212 27.7826 24.8591 25.8989 26.657 23.3861C28.4549 20.8733 29.4222 17.8578 29.4227 14.7642C29.4227 6.60699 22.8394 0 14.7114 0Z" fill="#FEFEFE"/>
</svg>