<svg width="67" height="65" viewBox="0 0 67 65" fill="none" xmlns="http://www.w3.org/2000/svg">
<g filter="url(#filter0_d_69_474)">
<path fill-rule="evenodd" clip-rule="evenodd" d="M33.4913 0.648315C17.6924 0.648315 4.896 13.4447 4.896 29.2437C4.896 41.8971 13.0814 52.5846 24.4481 56.3735C25.8778 56.6237 26.414 55.7659 26.414 55.0152C26.414 54.3361 26.3783 52.0842 26.3783 49.6893C19.1937 51.0119 17.335 47.9379 16.7631 46.3294C16.4414 45.5073 15.0473 42.9694 13.832 42.2903C12.8312 41.7541 11.4014 40.4316 13.7963 40.3959C16.0482 40.3601 17.6567 42.469 18.1928 43.3269C20.7664 47.6519 24.877 46.4366 26.5212 45.686C26.7714 43.8273 27.5221 42.5762 28.3442 41.8614C21.9817 41.1465 15.3333 38.6801 15.3333 27.7424C15.3333 24.6327 16.4414 22.0591 18.2643 20.0574C17.9784 19.3425 16.9775 16.4115 18.5503 12.4796C18.5503 12.4796 20.9451 11.729 26.414 15.4107C28.7016 14.7673 31.1322 14.4456 33.5628 14.4456C35.9934 14.4456 38.424 14.7673 40.7117 15.4107C46.1805 11.6933 48.5754 12.4796 48.5754 12.4796C50.1481 16.4115 49.1473 19.3425 48.8613 20.0574C50.6843 22.0591 51.7924 24.5969 51.7924 27.7424C51.7924 38.7159 45.1082 41.1465 38.7457 41.8614C39.7823 42.755 40.6759 44.4707 40.6759 47.1515C40.6759 50.9761 40.6402 54.0501 40.6402 55.0152C40.6402 55.7659 41.1763 56.6595 42.6061 56.3735C48.2827 54.457 53.2154 50.8086 56.71 45.9418C60.2045 41.0751 62.085 35.2351 62.0867 29.2437C62.0867 13.4447 49.2903 0.648315 33.4913 0.648315Z" fill="black"/>
</g>
<defs>
<filter id="filter0_d_69_474" x="0.895996" y="0.648315" width="65.1907" height="63.7798" filterUnits="userSpaceOnUse" color-interpolation-filters="sRGB">
<feFlood flood-opacity="0" result="BackgroundImageFix"/>
<feColorMatrix in="SourceAlpha" type="matrix" values="0 0 0 0 0 0 0 0 0 0 0 0 0 0 0 0 0 0 127 0" result="hardAlpha"/>
<feOffset dy="4"/>
<feGaussianBlur stdDeviation="2"/>
<feComposite in2="hardAlpha" operator="out"/>
<feColorMatrix type="matrix" values="0 0 0 0 0 0 0 0 0 0 0 0 0 0 0 0 0 0 0.5 0"/>
<feBlend mode="normal" in2="BackgroundImageFix" result="effect1_dropShadow_69_474"/>
<feBlend mode="normal" in="SourceGraphic" in2="effect1_dropShadow_69_474" result="shape"/>
</filter>
</defs>
</svg>
