<svg width="58" height="65" viewBox="0 0 58 65" fill="none" xmlns="http://www.w3.org/2000/svg">
<g filter="url(#filter0_d_69_457)">
<path d="M8.47633 50.8521L4 0.648315H53.1858L48.7035 50.8442L28.563 56.4281L8.47633 50.8521Z" fill="#E44F26"/>
<path d="M28.5929 52.161L44.8686 47.6488L48.6975 4.75415H28.5929V52.161Z" fill="#F1662A"/>
<path d="M28.5929 23.3727H20.445L19.8832 17.0676H28.5929V10.9099H13.1538L13.3012 12.5634L14.8133 29.5304H28.5929V23.3727ZM28.5929 39.3636L28.565 39.3716L21.708 37.5209L21.2698 32.6103H15.0882L15.9508 42.2761L28.565 45.7783L28.5929 45.7703V39.3636Z" fill="#EBEBEB"/>
<path d="M28.5709 23.3727V29.5304H36.153L35.4398 37.5169L28.5709 39.3696V45.7763L41.1951 42.2761L41.2867 41.2362L42.733 25.0262L42.8844 23.3727H28.5709ZM28.5709 10.9099V17.0676H43.4442L43.5677 15.6851L43.8486 12.5634L43.996 10.9099H28.5709Z" fill="white"/>
</g>
<defs>
<filter id="filter0_d_69_457" x="0" y="0.648315" width="57.1858" height="63.7798" filterUnits="userSpaceOnUse" color-interpolation-filters="sRGB">
<feFlood flood-opacity="0" result="BackgroundImageFix"/>
<feColorMatrix in="SourceAlpha" type="matrix" values="0 0 0 0 0 0 0 0 0 0 0 0 0 0 0 0 0 0 127 0" result="hardAlpha"/>
<feOffset dy="4"/>
<feGaussianBlur stdDeviation="2"/>
<feComposite in2="hardAlpha" operator="out"/>
<feColorMatrix type="matrix" values="0 0 0 0 0 0 0 0 0 0 0 0 0 0 0 0 0 0 0.5 0"/>
<feBlend mode="normal" in2="BackgroundImageFix" result="effect1_dropShadow_69_457"/>
<feBlend mode="normal" in="SourceGraphic" in2="effect1_dropShadow_69_457" result="shape"/>
</filter>
</defs>
</svg>
