<svg xmlns="http://www.w3.org/2000/svg" width="29" height="29" viewBox="0 0 29 29" fill="none">
<path d="M14.4 2.59465C18.245 2.59465 18.7004 2.60928 20.2188 2.67856C21.6228 2.74264 22.3852 2.97723 22.8927 3.17437C23.5648 3.4356 24.0446 3.7477 24.5484 4.25157C25.0523 4.75544 25.3644 5.23519 25.6256 5.90729C25.8228 6.41476 26.0574 7.17724 26.1214 8.58117C26.1907 10.0996 26.2054 10.555 26.2054 14.4C26.2054 18.245 26.1907 18.7004 26.1214 20.2188C26.0574 21.6228 25.8228 22.3853 25.6256 22.8928C25.3644 23.5649 25.0523 24.0446 24.5484 24.5485C24.0446 25.0524 23.5648 25.3645 22.8927 25.6256C22.3852 25.8228 21.6228 26.0574 20.2188 26.1215C18.7006 26.1908 18.2452 26.2054 14.4 26.2054C10.5548 26.2054 10.0994 26.1908 8.58117 26.1215C7.17718 26.0574 6.41471 25.8228 5.90729 25.6256C5.23514 25.3645 4.75539 25.0524 4.25151 24.5485C3.74764 24.0446 3.43554 23.5649 3.17437 22.8928C2.97717 22.3853 2.74258 21.6228 2.6785 20.2189C2.60922 18.7004 2.59459 18.245 2.59459 14.4C2.59459 10.555 2.60922 10.0996 2.6785 8.58122C2.74258 7.17723 2.97717 6.41476 3.17437 5.90729C3.43554 5.23519 3.74764 4.75544 4.25151 4.25157C4.75539 3.7477 5.23514 3.4356 5.90729 3.17437C6.41471 2.97723 7.17718 2.74264 8.58111 2.67856C10.0996 2.60928 10.555 2.59465 14.4 2.59465ZM14.4 0C10.4891 0 9.99881 0.0165769 8.4629 0.086656C6.93013 0.156621 5.8834 0.400012 4.9674 0.75601C4.02047 1.12401 3.21742 1.6164 2.41688 2.41693C1.61634 3.21747 1.12395 4.02052 0.755953 4.96745C0.399955 5.88345 0.156563 6.93019 0.0865984 8.46295C0.0165192 9.99881 0 10.4892 0 14.4C0 18.3109 0.0165192 18.8012 0.0865984 20.3371C0.156563 21.8699 0.399955 22.9166 0.755953 23.8326C1.12395 24.7795 1.61634 25.5826 2.41688 26.3831C3.21742 27.1837 4.02047 27.676 4.9674 28.044C5.8834 28.4 6.93013 28.6434 8.4629 28.7134C9.99881 28.7835 10.4891 28.8 14.4 28.8C18.3108 28.8 18.8012 28.7835 20.337 28.7134C21.8698 28.6434 22.9165 28.4 23.8325 28.044C24.7795 27.676 25.5825 27.1837 26.3831 26.3831C27.1836 25.5826 27.676 24.7795 28.044 23.8326C28.4 22.9166 28.6434 21.8699 28.7133 20.3371C28.7834 18.8012 28.8 18.3109 28.8 14.4C28.8 10.4892 28.7834 9.99881 28.7133 8.46295C28.6434 6.93019 28.4 5.88345 28.044 4.96745C27.676 4.02052 27.1836 3.21747 26.3831 2.41693C25.5825 1.6164 24.7795 1.12401 23.8325 0.75601C22.9165 0.400012 21.8698 0.156621 20.337 0.086656C18.8012 0.0165769 18.3108 0 14.4 0ZM14.4 7.00541C10.3161 7.00541 7.00535 10.3161 7.00535 14.4C7.00535 18.4839 10.3161 21.7946 14.4 21.7946C18.4839 21.7946 21.7946 18.4839 21.7946 14.4C21.7946 10.3161 18.4839 7.00541 14.4 7.00541ZM14.4 19.2001C11.749 19.2001 9.59994 17.051 9.59994 14.4C9.59994 11.7491 11.749 9.6 14.4 9.6C17.0509 9.6 19.2 11.7491 19.2 14.4C19.2 17.051 17.0509 19.2001 14.4 19.2001ZM23.8147 6.71326C23.8147 7.66762 23.0411 8.44129 22.0867 8.44129C21.1324 8.44129 20.3587 7.66762 20.3587 6.71326C20.3587 5.7589 21.1324 4.98529 22.0867 4.98529C23.0411 4.98529 23.8147 5.7589 23.8147 6.71326Z" fill="#FEFEFE"/>
</svg>