<svg width="41" height="40" viewBox="0 0 41 40" fill="none" xmlns="http://www.w3.org/2000/svg">
<g filter="url(#filter0_d_35_288)">
<path d="M20.4324 2.84737C24.6519 2.84737 25.1517 2.86343 26.818 2.93946C28.3588 3.00978 29.1955 3.26721 29.7524 3.48357C30.49 3.77023 31.0164 4.11273 31.5694 4.66568C32.1223 5.21863 32.4648 5.74511 32.7515 6.48268C32.9679 7.03958 33.2253 7.87632 33.2956 9.41699C33.3716 11.0834 33.3877 11.5831 33.3877 15.8026C33.3877 20.0221 33.3716 20.5219 33.2956 22.1882C33.2253 23.7289 32.9679 24.5657 32.7515 25.1226C32.4648 25.8601 32.1223 26.3866 31.5694 26.9396C31.0164 27.4925 30.49 27.835 29.7524 28.1216C29.1955 28.338 28.3588 28.5955 26.818 28.6658C25.152 28.7418 24.6522 28.7579 20.4324 28.7579C16.2127 28.7579 15.7129 28.7418 14.0469 28.6658C12.5061 28.5955 11.6694 28.338 11.1126 28.1216C10.3749 27.835 9.84846 27.4925 9.29551 26.9396C8.74255 26.3866 8.40005 25.8601 8.11345 25.1226C7.89703 24.5657 7.6396 23.7289 7.56928 22.1883C7.49325 20.5219 7.47719 20.0221 7.47719 15.8026C7.47719 11.5831 7.49325 11.0834 7.56928 9.41705C7.6396 7.87632 7.89703 7.03958 8.11345 6.48268C8.40005 5.74511 8.74255 5.21863 9.29551 4.66568C9.84846 4.11273 10.3749 3.77023 11.1126 3.48357C11.6694 3.26721 12.5061 3.00978 14.0468 2.93946C15.7132 2.86343 16.213 2.84737 20.4324 2.84737ZM20.4324 0C16.1407 0 15.6026 0.0181915 13.9171 0.0950966C12.235 0.171876 11.0863 0.438975 10.0811 0.829648C9.04196 1.23349 8.16068 1.77384 7.28217 2.65235C6.40366 3.53086 5.86331 4.41213 5.45947 5.45129C5.06879 6.45652 4.8017 7.6052 4.72492 9.28727C4.64801 10.9727 4.62988 11.5109 4.62988 15.8026C4.62988 20.0944 4.64801 20.6325 4.72492 22.318C4.8017 24.0001 5.06879 25.1487 5.45947 26.154C5.86331 27.1931 6.40366 28.0744 7.28217 28.9529C8.16068 29.8314 9.04196 30.3718 10.0811 30.7756C11.0863 31.1663 12.235 31.4334 13.9171 31.5102C15.6026 31.5871 16.1407 31.6052 20.4324 31.6052C24.7242 31.6052 25.2624 31.5871 26.9478 31.5102C28.6299 31.4334 29.7786 31.1663 30.7838 30.7756C31.8229 30.3718 32.7042 29.8314 33.5827 28.9529C34.4612 28.0744 35.0016 27.1931 35.4054 26.154C35.7961 25.1487 36.0632 24.0001 36.14 22.318C36.2169 20.6325 36.2351 20.0944 36.2351 15.8026C36.2351 11.5109 36.2169 10.9727 36.14 9.28727C36.0632 7.6052 35.7961 6.45652 35.4054 5.45129C35.0016 4.41213 34.4612 3.53086 33.5827 2.65235C32.7042 1.77384 31.8229 1.23349 30.7838 0.829648C29.7786 0.438975 28.6299 0.171876 26.9478 0.0950966C25.2624 0.0181915 24.7242 0 20.4324 0ZM20.4324 7.68776C15.9507 7.68776 12.3176 11.3209 12.3176 15.8026C12.3176 20.2843 15.9507 23.9175 20.4324 23.9175C24.9142 23.9175 28.5473 20.2843 28.5473 15.8026C28.5473 11.3209 24.9142 7.68776 20.4324 7.68776ZM20.4324 21.0702C17.5233 21.0702 15.1649 18.7118 15.1649 15.8026C15.1649 12.8935 17.5233 10.5351 20.4324 10.5351C23.3416 10.5351 25.7 12.8935 25.7 15.8026C25.7 18.7118 23.3416 21.0702 20.4324 21.0702ZM30.7642 7.36715C30.7642 8.41447 29.9152 9.2635 28.8679 9.2635C27.8206 9.2635 26.9716 8.41447 26.9716 7.36715C26.9716 6.31984 27.8206 5.47087 28.8679 5.47087C29.9152 5.47087 30.7642 6.31984 30.7642 7.36715Z" fill="#FEFEFE"/>
</g>
<defs>
<filter id="filter0_d_35_288" x="0.629883" y="0" width="39.6052" height="39.6052" filterUnits="userSpaceOnUse" color-interpolation-filters="sRGB">
<feFlood flood-opacity="0" result="BackgroundImageFix"/>
<feColorMatrix in="SourceAlpha" type="matrix" values="0 0 0 0 0 0 0 0 0 0 0 0 0 0 0 0 0 0 127 0" result="hardAlpha"/>
<feOffset dy="4"/>
<feGaussianBlur stdDeviation="2"/>
<feComposite in2="hardAlpha" operator="out"/>
<feColorMatrix type="matrix" values="0 0 0 0 0 0 0 0 0 0 0 0 0 0 0 0 0 0 0.5 0"/>
<feBlend mode="normal" in2="BackgroundImageFix" result="effect1_dropShadow_35_288"/>
<feBlend mode="normal" in="SourceGraphic" in2="effect1_dropShadow_35_288" result="shape"/>
</filter>
</defs>
</svg>
