<svg width="64" height="64" viewBox="0 0 64 64" fill="none" xmlns="http://www.w3.org/2000/svg">
<g filter="url(#filter0_d_69_454)">
<path d="M4.07336 0H59.8532V55.7798H4.07336V0Z" fill="#F5DE19"/>
<path d="M41.5435 43.578C42.0187 44.5434 42.7571 45.3548 43.6735 45.9188C44.5899 46.4827 45.647 46.7762 46.723 46.7654C48.8944 46.7654 50.283 45.6797 50.283 44.1757C50.283 42.3827 48.8566 41.7413 46.466 40.6954L45.1552 40.1336C41.3701 38.522 38.8601 36.5039 38.8601 32.2368C38.8601 28.3063 41.8483 25.3121 46.5358 25.3121C48.0532 25.2025 49.5693 25.5422 50.8949 26.2886C52.2206 27.035 53.2972 28.1553 53.9903 29.5095L49.8925 32.1292C49.6256 31.4577 49.1609 30.8832 48.56 30.4819C47.959 30.0805 47.2503 29.8714 46.5278 29.8821C46.2126 29.8505 45.8942 29.885 45.593 29.9832C45.2918 30.0815 45.0144 30.2415 44.7785 30.4529C44.5425 30.6643 44.3532 30.9225 44.2225 31.2111C44.0919 31.4997 44.0228 31.8124 44.0197 32.1292C44.0197 33.701 44.9938 34.3385 47.243 35.3166L48.5538 35.8784C53.0082 37.7889 55.5263 39.7352 55.5263 44.1119C55.5263 48.8313 51.8189 51.4171 46.8406 51.4171C44.9008 51.5407 42.9668 51.1003 41.2718 50.149C39.5768 49.1978 38.1933 47.7763 37.2883 46.0562L41.5435 43.578ZM23.0266 44.0322C23.8493 45.4925 24.5984 46.7276 26.3992 46.7276C28.1204 46.7276 29.2082 46.0542 29.2082 43.4346V25.6109H34.4495V43.5043C34.4495 48.9309 31.262 51.4011 26.6224 51.4011C24.9823 51.4908 23.3536 51.0821 21.9502 50.2287C20.5468 49.3754 19.4344 48.1173 18.7594 46.62L23.0266 44.0322Z" fill="black"/>
</g>
<defs>
<filter id="filter0_d_69_454" x="0.0733643" y="0" width="63.7798" height="63.7798" filterUnits="userSpaceOnUse" color-interpolation-filters="sRGB">
<feFlood flood-opacity="0" result="BackgroundImageFix"/>
<feColorMatrix in="SourceAlpha" type="matrix" values="0 0 0 0 0 0 0 0 0 0 0 0 0 0 0 0 0 0 127 0" result="hardAlpha"/>
<feOffset dy="4"/>
<feGaussianBlur stdDeviation="2"/>
<feComposite in2="hardAlpha" operator="out"/>
<feColorMatrix type="matrix" values="0 0 0 0 0 0 0 0 0 0 0 0 0 0 0 0 0 0 0.5 0"/>
<feBlend mode="normal" in2="BackgroundImageFix" result="effect1_dropShadow_69_454"/>
<feBlend mode="normal" in="SourceGraphic" in2="effect1_dropShadow_69_454" result="shape"/>
</filter>
</defs>
</svg>
