<svg xmlns="http://www.w3.org/2000/svg" width="29" height="29" viewBox="0 0 29 29" fill="none">
<path d="M0 2.0628C0 0.9234 0.9468 0 2.115 0H26.685C27.8532 0 28.8 0.9234 28.8 2.0628V26.7372C28.8 27.8766 27.8532 28.8 26.685 28.8H2.115C0.9468 28.8 0 27.8766 0 26.7372V2.0628ZM8.8974 24.1092V11.1042H4.5756V24.1092H8.8974ZM6.7374 9.3276C8.244 9.3276 9.1818 8.3304 9.1818 7.0812C9.1548 5.805 8.2458 4.8348 6.7662 4.8348C5.2866 4.8348 4.32 5.8068 4.32 7.0812C4.32 8.3304 5.2578 9.3276 6.7086 9.3276H6.7374ZM15.5718 24.1092V16.8462C15.5718 16.4574 15.6006 16.0686 15.7158 15.7914C16.0272 15.0156 16.7382 14.211 17.9334 14.211C19.4976 14.211 20.1222 15.4026 20.1222 17.1522V24.1092H24.444V16.65C24.444 12.654 22.3128 10.7964 19.4688 10.7964C17.1756 10.7964 16.1478 12.0564 15.5718 12.9438V12.9888H15.543C15.5526 12.9738 15.5622 12.9588 15.5718 12.9438V11.1042H11.2518C11.3058 12.3246 11.2518 24.1092 11.2518 24.1092H15.5718Z" fill="#FEFEFE"/>
</svg>