<svg width="107" height="37" viewBox="0 0 107 37" fill="none" xmlns="http://www.w3.org/2000/svg">
  <g filter="url(#filter0_d_80_1146)">
  <path d="M14.7928 27.0358L4.00671 19.5286V13.3293L14.7928 5.7504V12.1826L8.3068 16.429L14.7928 20.5857V27.0358ZM13.4131 24.2945V21.4636L6.99885 17.3069V15.5869L13.4131 11.3584V8.52754L5.09965 14.261V18.6507L13.4131 24.2945ZM28.9105 27V1.91615H33.9811V21.9295H44.8746V27H28.9105ZM30.3081 25.6383H43.5129V23.327H32.6015V3.25993H30.3081V25.6383ZM48.4723 27V1.91615H63.9347L67.6256 5.60706V13.3831L65.4397 15.3898L67.6256 17.7727V27H62.5551V19.5644L60.7634 17.7727H53.5428V27H48.4723ZM49.8698 25.6383H52.1632V16.3214H61.3546L63.9705 19.0628V25.6383H66.2818V18.3102L63.4689 15.2464L66.2102 12.8455V6.26999L63.218 3.27785H49.8698V25.6383ZM53.5428 12.7022H61.4622L62.5551 11.5914V8.07961L61.4622 6.98667H53.5428V12.7022ZM52.1632 14.0102V5.57123H62.0892L63.8989 7.38085V12.0751L61.6951 14.0102H52.1632ZM80.228 30.6013L84.7073 0.12445H89.7778L85.2985 30.6013H80.228ZM81.7868 29.2396H84.0981L88.2548 1.43239H85.9435L81.7868 29.2396ZM92.717 27.0358V20.5857L99.203 16.429L92.717 12.1826V5.7504L103.503 13.3293V19.5286L92.717 27.0358ZM94.0966 24.2945L102.41 18.6507V14.261L94.0966 8.52754V11.3584L100.511 15.5869V17.3069L94.0966 21.4636V24.2945Z" fill="#FE89A7"/>
  </g>
  <defs>
  <filter id="filter0_d_80_1146" x="0.923259" y="0.124451" width="105.663" height="36.6435" filterUnits="userSpaceOnUse" color-interpolation-filters="sRGB">
  <feFlood flood-opacity="0" result="BackgroundImageFix"/>
  <feColorMatrix in="SourceAlpha" type="matrix" values="0 0 0 0 0 0 0 0 0 0 0 0 0 0 0 0 0 0 127 0" result="hardAlpha"/>
  <feOffset dy="3.08333"/>
  <feGaussianBlur stdDeviation="1.54167"/>
  <feComposite in2="hardAlpha" operator="out"/>
  <feColorMatrix type="matrix" values="0 0 0 0 0 0 0 0 0 0 0 0 0 0 0 0 0 0 0.5 0"/>
  <feBlend mode="normal" in2="BackgroundImageFix" result="effect1_dropShadow_80_1146"/>
  <feBlend mode="normal" in="SourceGraphic" in2="effect1_dropShadow_80_1146" result="shape"/>
  </filter>
  </defs>
</svg>