<svg width="77" height="99" viewBox="0 0 77 99" fill="none" xmlns="http://www.w3.org/2000/svg">
<g filter="url(#filter0_d_69_597)">
<path d="M72.0151 37.6772C71.8998 37.4112 71.6847 37.2011 71.416 37.092C71.1474 36.9829 70.8467 36.9837 70.5786 37.0941C59.3138 41.8446 51.9319 54.5033 48.049 75.8239C47.7076 77.6587 47.3378 79.0241 46.8116 80.2046C44.4932 85.5241 40.1978 88.8239 35.6037 88.8239C35.305 88.8239 35.0205 88.8096 34.7218 88.7812C30.5544 88.4114 27.4111 85.4103 26.3159 80.7593C26.2617 80.5208 26.128 80.3078 25.9367 80.1553C25.7455 80.0028 25.508 79.9199 25.2634 79.9201C25.1781 79.9201 25.0927 79.9344 25.0074 79.9486C24.7229 80.0197 24.4811 80.1904 24.3247 80.4322C24.1682 80.674 24.1255 80.9727 24.1967 81.2571C25.491 86.7757 29.4593 90.5022 34.5369 90.9574C34.8925 90.9858 35.2339 91 35.5895 91C41.0938 91 46.1573 87.1882 48.8313 81.0722C49.4286 79.721 49.8553 78.2134 50.2109 76.2079C53.9516 55.6696 60.9068 43.523 71.4462 39.0853C72.0009 38.872 72.2569 38.2319 72.0151 37.6772Z" fill="#303641"/>
<path d="M25.2637 83.8175C20.9683 83.8175 17.3699 80.5319 17.0001 76.2507L13.1313 31.9739H37.3961L33.5274 76.2365C33.3462 78.3041 32.3974 80.2289 30.868 81.632C29.3386 83.0351 27.3393 83.8147 25.2637 83.8175Z" fill="#CD486A"/>
<path d="M25.2636 38.1182C35.7896 38.1182 44.3227 29.5851 44.3227 19.0591C44.3227 8.53305 35.7896 0 25.2636 0C14.7375 0 6.20447 8.53305 6.20447 19.0591C6.20447 29.5851 14.7375 38.1182 25.2636 38.1182Z" fill="#303641"/>
<path d="M45.3895 17.3808C45.0909 17.3808 44.8206 17.4946 44.6215 17.7079C44.4231 17.9147 44.3111 18.1894 44.3086 18.476C44.3228 19.9978 43.0569 21.4202 39.7003 22.5011C36.244 23.6105 31.3939 24.2506 26.046 24.3075H25.7757C14.511 24.3075 6.21882 21.7331 6.19037 18.4475C6.18852 18.3037 6.15835 18.1616 6.10159 18.0295C6.04483 17.8973 5.96259 17.7776 5.85957 17.6772C5.75655 17.5769 5.63476 17.4978 5.50117 17.4444C5.36758 17.3911 5.22479 17.3647 5.08096 17.3665C4.78228 17.3665 4.51204 17.4803 4.31291 17.6937C4.11448 17.9004 4.00255 18.1752 4 18.4617C4.05689 24.3786 15.2363 26.4836 25.2637 26.4836H26.046C35.7604 26.3841 46.5274 24.2079 46.4705 18.4475C46.4715 18.3059 46.4441 18.1656 46.3899 18.0348C46.3358 17.904 46.256 17.7854 46.1552 17.686C46.0544 17.5865 45.9348 17.5083 45.8033 17.4559C45.6718 17.4035 45.5311 17.3779 45.3895 17.3808Z" fill="#515151"/>
<path d="M25.2636 66.1806C23.571 66.1806 22.2056 64.801 22.2056 63.1226V51.4596C22.2056 49.767 23.5852 48.4016 25.2636 48.4016C26.9561 48.4016 28.3215 49.7813 28.3215 51.4596V63.1226C28.3215 64.801 26.9561 66.1806 25.2636 66.1806Z" fill="#666666"/>
<path d="M25.4628 65.4835H25.0503C23.8555 65.4835 22.8741 64.5163 22.8741 63.3073V51.2318C22.8741 50.0371 23.8413 49.0557 25.0503 49.0557H25.4628C26.6575 49.0557 27.6389 50.0228 27.6389 51.2318V63.3073C27.6389 64.5163 26.6717 65.4835 25.4628 65.4835Z" fill="#D3D1D1"/>
<path d="M25.363 63.9191H25.1639C24.6092 63.9191 24.1541 63.4639 24.1541 62.9092V58.9552C24.1541 58.4005 24.6092 57.9453 25.1639 57.9453H25.363C25.9177 57.9453 26.3729 58.4005 26.3729 58.9552V62.9092C26.3729 63.4639 25.9177 63.9191 25.363 63.9191Z" fill="#666666"/>
</g>
<defs>
<filter id="filter0_d_69_597" x="0" y="0" width="76.1062" height="99" filterUnits="userSpaceOnUse" color-interpolation-filters="sRGB">
<feFlood flood-opacity="0" result="BackgroundImageFix"/>
<feColorMatrix in="SourceAlpha" type="matrix" values="0 0 0 0 0 0 0 0 0 0 0 0 0 0 0 0 0 0 127 0" result="hardAlpha"/>
<feOffset dy="4"/>
<feGaussianBlur stdDeviation="2"/>
<feComposite in2="hardAlpha" operator="out"/>
<feColorMatrix type="matrix" values="0 0 0 0 0 0 0 0 0 0 0 0 0 0 0 0 0 0 0.5 0"/>
<feBlend mode="normal" in2="BackgroundImageFix" result="effect1_dropShadow_69_597"/>
<feBlend mode="normal" in="SourceGraphic" in2="effect1_dropShadow_69_597" result="shape"/>
</filter>
</defs>
</svg>
