<svg width="56" height="61" viewBox="0 0 56 61" fill="none" xmlns="http://www.w3.org/2000/svg">
<g filter="url(#filter0_d_69_467)">
<path d="M49.2597 11.9725L30.0431 0.814337C28.8312 0.124062 27.2532 0.124062 26.0317 0.814337L6.60988 11.9725C5.35919 12.692 4.47412 14.0442 4.47412 15.4905V37.7772C4.47412 39.2235 5.38229 40.5762 6.63297 41.2996L11.7643 44.2141C14.2169 45.4221 15.0836 45.4221 16.1996 45.4221C19.831 45.4221 21.9053 43.2262 21.9053 39.3961V17.3936C21.9053 17.0829 21.7436 16.6205 21.4386 16.6205H18.9882C18.6779 16.6205 17.9833 17.0829 17.9833 17.3931V39.3957C17.9833 41.0935 16.4476 42.783 13.5776 41.348L8.27543 38.2918C8.09066 38.1916 7.96036 37.9898 7.96036 37.7772V15.4905C7.96036 15.2805 8.20222 15.0696 8.3883 14.9619L27.7474 3.82296C27.9282 3.72055 28.1941 3.72055 28.3745 3.82296L47.4974 14.9593C47.6804 15.0696 47.6159 15.2739 47.6159 15.4905V37.7772C47.6159 37.9898 47.6956 38.1968 47.5148 38.2992L28.303 49.4448C28.1383 49.5437 27.9339 49.5437 27.7535 49.4448L22.8261 46.5037C22.6775 46.4174 22.501 46.3864 22.3585 46.4662C20.9876 47.2432 20.7348 47.3465 19.4488 47.7923C19.1324 47.9025 18.6657 48.0938 19.6275 48.6329L26.0762 52.4477C26.6918 52.8033 27.3903 52.9906 28.1012 52.9907C28.8168 52.9907 29.5175 52.805 30.135 52.4477L49.2592 41.2996C50.5099 40.571 51.1026 39.2235 51.1026 37.7772V15.4905C51.1026 14.0442 50.5099 12.6954 49.2597 11.9725ZM34.0679 34.2456C28.958 34.2456 27.8324 32.8359 27.4571 30.2948C27.4136 30.0212 27.1813 29.6939 26.9028 29.6939H24.4054C24.0964 29.6939 23.848 30.0687 23.848 30.3763C23.848 33.6299 25.6169 37.5719 34.0684 37.5719C40.1863 37.5719 43.6939 35.1948 43.6939 30.9877C43.6939 26.8165 40.8757 25.7218 34.9425 24.9365C28.9453 24.1438 28.3361 23.7433 28.3361 22.3384C28.3361 21.1801 28.8521 19.6352 33.2927 19.6352C37.2604 19.6352 38.7229 20.4867 39.3247 23.1611C39.3762 23.4126 39.6058 23.593 39.8651 23.593H42.3726C42.5269 23.593 42.6741 23.5307 42.7822 23.4204C42.8868 23.3019 42.9421 23.1533 42.9282 22.9938C42.5399 18.3885 39.4803 16.2423 33.2922 16.2423C27.7879 16.2423 24.5043 18.5667 24.5043 22.463C24.5043 26.6892 27.7713 27.8571 33.0552 28.3796C39.3762 28.9993 39.8677 29.9231 39.8677 31.1664C39.8677 33.3257 38.1342 34.2456 34.0679 34.2456Z" fill="#83CD29"/>
</g>
<defs>
<filter id="filter0_d_69_467" x="0.474121" y="0.296631" width="54.6284" height="60.6941" filterUnits="userSpaceOnUse" color-interpolation-filters="sRGB">
<feFlood flood-opacity="0" result="BackgroundImageFix"/>
<feColorMatrix in="SourceAlpha" type="matrix" values="0 0 0 0 0 0 0 0 0 0 0 0 0 0 0 0 0 0 127 0" result="hardAlpha"/>
<feOffset dy="4"/>
<feGaussianBlur stdDeviation="2"/>
<feComposite in2="hardAlpha" operator="out"/>
<feColorMatrix type="matrix" values="0 0 0 0 0 0 0 0 0 0 0 0 0 0 0 0 0 0 0.5 0"/>
<feBlend mode="normal" in2="BackgroundImageFix" result="effect1_dropShadow_69_467"/>
<feBlend mode="normal" in="SourceGraphic" in2="effect1_dropShadow_69_467" result="shape"/>
</filter>
</defs>
</svg>
