<svg width="15" height="15" viewBox="0 0 15 15" fill="none" xmlns="http://www.w3.org/2000/svg">
<path d="M8.29516 6.71555C7.82736 6.24794 7.193 5.98526 6.53157 5.98526C5.87014 5.98526 5.23578 6.24794 4.76798 6.71555L3.00381 8.47914C2.53601 8.94695 2.27319 9.58143 2.27319 10.243C2.27319 10.9046 2.53601 11.5391 3.00381 12.0069C3.47162 12.4747 4.10611 12.7375 4.76769 12.7375C5.42927 12.7375 6.06376 12.4747 6.53157 12.0069L7.41336 11.1251" stroke="#FCFCFC" stroke-width="1.14222" stroke-linecap="round" stroke-linejoin="round"/>
<path d="M6.53149 8.47915C6.9993 8.94676 7.63365 9.20944 8.29508 9.20944C8.95652 9.20944 9.59088 8.94676 10.0587 8.47915L11.8228 6.71556C12.2906 6.24775 12.5535 5.61326 12.5535 4.95168C12.5535 4.2901 12.2906 3.65561 11.8228 3.18781C11.355 2.72 10.7205 2.45718 10.059 2.45718C9.39738 2.45718 8.76289 2.72 8.29508 3.18781L7.41329 4.0696" stroke="#FCFCFC" stroke-width="1.14222" stroke-linecap="round" stroke-linejoin="round"/>
</svg>
