<svg width="71" height="64" viewBox="0 0 71 64" fill="none" xmlns="http://www.w3.org/2000/svg">
<g filter="url(#filter0_d_69_465)">
<path d="M55.3594 18.0794C54.6946 17.8504 54.0242 17.6384 53.3487 17.4434C53.4622 16.9781 53.5666 16.5184 53.6594 16.0668C55.1815 8.65101 54.1864 2.6767 50.7876 0.709674C47.5289 -1.17605 42.1996 0.790246 36.8173 5.49157C36.2868 5.95573 35.7681 6.43327 35.2617 6.92374C34.9227 6.59759 34.5777 6.27778 34.2269 5.96447C28.5859 0.937675 22.9318 -1.18094 19.5367 0.791715C16.2809 2.68331 15.3168 8.29958 16.6872 15.3277C16.8235 16.0237 16.9774 16.7162 17.1488 17.4044C16.3485 17.6327 15.5762 17.8756 14.8371 18.1342C8.22352 20.4485 4 24.0752 4 27.8371C4 31.7224 8.53414 35.6195 15.4225 37.9825C15.9809 38.1733 16.544 38.3501 17.1112 38.5127C16.927 39.254 16.7635 40.0002 16.6208 40.7506C15.3144 47.6568 16.3346 53.1403 19.5816 55.0199C22.9352 56.961 28.564 54.966 34.0446 50.1574C34.489 49.7665 34.9237 49.3645 35.3481 48.9518C35.8965 49.4829 36.4596 49.9985 37.0366 50.4981C42.3457 55.0831 47.589 56.9345 50.8328 55.0498C54.1833 53.1031 55.2723 47.2123 53.8585 40.0453C53.7471 39.4838 53.6222 38.9251 53.4839 38.3697C53.8792 38.2522 54.2672 38.1312 54.6454 38.0053C61.8065 35.6242 66.4658 31.7743 66.4658 27.8371C66.4658 24.0615 62.1059 20.4103 55.3594 18.0794ZM53.8063 35.4633C53.4646 35.5766 53.1143 35.6861 52.757 35.7926C51.9664 33.2807 50.8996 30.6099 49.594 27.8501C50.8399 25.1562 51.8657 22.5194 52.634 20.0239C53.2731 20.2095 53.8931 20.4052 54.4909 20.6116C60.2715 22.609 63.7974 25.5618 63.7974 27.8371C63.7974 30.2606 59.9894 33.4068 53.8063 35.4633ZM51.2408 40.5655C51.8659 43.7345 51.955 46.5998 51.5409 48.8399C51.169 50.8527 50.4209 52.1945 49.4956 52.7321C47.5272 53.8757 43.3174 52.3892 38.7771 48.4679C38.2404 48.0034 37.7166 47.524 37.2064 47.0303C38.9667 45.0983 40.7258 42.8523 42.4426 40.3578C45.4624 40.0889 48.3154 39.6491 50.9026 39.0488C51.0272 39.5516 51.14 40.0573 51.2408 40.5655ZM25.296 52.5344C23.3727 53.216 21.8408 53.2356 20.9148 52.6997C18.9445 51.5592 18.1253 47.1562 19.2426 41.2502C19.3755 40.5523 19.5275 39.8583 19.6987 39.1688C22.2573 39.737 25.0895 40.1455 28.1164 40.3918C29.845 42.8328 31.6548 45.0763 33.4788 47.0408C33.0911 47.4173 32.6943 47.7841 32.2887 48.1409C29.865 50.2671 27.4364 51.7757 25.296 52.5344ZM16.2858 35.4483C13.2398 34.4033 10.7243 33.0454 9.0002 31.5635C7.45075 30.232 6.66871 28.9098 6.66871 27.8371C6.66871 25.5542 10.0597 22.6423 15.7155 20.6633C16.4019 20.4233 17.1203 20.1968 17.8657 19.9842C18.6475 22.536 19.6728 25.2042 20.9102 27.9023C19.6567 30.6402 18.6168 33.351 17.8274 35.933C17.3096 35.7841 16.7956 35.6225 16.2858 35.4483ZM19.3061 14.8131C18.1322 8.79182 18.9118 4.24969 20.8738 3.10968C22.9635 1.89547 27.5845 3.62666 32.4551 7.96725C32.7727 8.25094 33.0852 8.54037 33.3924 8.83541C31.5774 10.7914 29.7842 13.0183 28.0711 15.4447C25.1332 15.7181 22.321 16.1569 19.7355 16.7449C19.5762 16.1048 19.433 15.4608 19.3061 14.8134V14.8131ZM46.2511 21.491C45.6404 20.4323 45.007 19.3869 44.3515 18.3556C46.3445 18.6086 48.2541 18.9443 50.0473 19.3548C49.509 21.0867 48.838 22.8973 48.0482 24.7536C47.4708 23.6542 46.8717 22.5664 46.2511 21.491ZM35.2629 10.7495C36.4937 12.0879 37.7264 13.582 38.9389 15.2033C36.4793 15.0867 34.0156 15.0862 31.556 15.2018C32.7697 13.5955 34.0129 12.1033 35.2629 10.7495ZM24.2043 21.5094C23.5914 22.5762 23.0034 23.6571 22.4408 24.7514C21.6639 22.9017 20.999 21.0828 20.4561 19.3264C22.2383 18.9262 24.1389 18.599 26.1193 18.3507C25.4564 19.3883 24.8179 20.4415 24.2043 21.5092V21.5094ZM26.1761 37.514C24.1301 37.2848 22.201 36.9745 20.4192 36.5851C20.9707 34.7974 21.6503 32.9398 22.444 31.0504C23.0089 32.1455 23.5993 33.2271 24.2148 34.2944C24.8477 35.3915 25.5031 36.4661 26.1761 37.514ZM35.3366 45.1133C34.0717 43.7438 32.8102 42.2286 31.5782 40.599C32.7743 40.6461 33.9936 40.6701 35.2329 40.6701C36.5061 40.6701 37.7647 40.6414 39.0036 40.5861C37.7872 42.245 36.5591 43.7624 35.3366 45.1133ZM48.0733 30.9539C48.9083 32.8641 49.612 34.7119 50.1708 36.4691C48.3598 36.8839 46.4043 37.218 44.3439 37.466C45.0041 36.4156 45.6435 35.352 46.2616 34.276C46.89 33.1823 47.494 32.0746 48.0733 30.9539ZM43.9501 32.9379C43.0039 34.5876 42.0045 36.206 40.9534 37.7905C39.0496 37.9259 37.1415 37.9931 35.2329 37.9921C33.2889 37.9921 31.3981 37.9313 29.5773 37.8128C28.4989 36.232 27.4804 34.6107 26.5241 32.9526H26.5243C25.5725 31.3032 24.6834 29.6181 23.859 27.901C24.6813 26.1835 25.5677 24.4977 26.5163 22.8471L26.516 22.8473C27.4642 21.1962 28.4746 19.5819 29.5449 18.0079C31.4025 17.8668 33.3075 17.7933 35.2327 17.7933H35.2329C37.1669 17.7933 39.0743 17.8675 40.9315 18.0096C41.991 19.5813 42.9949 21.1901 43.9413 22.8328C44.893 24.4798 45.7911 26.1575 46.6342 27.8631C45.7998 29.5861 44.9045 31.2788 43.9501 32.9379ZM49.4549 3.02984C51.5465 4.24062 52.36 9.12317 51.0458 15.526C50.9619 15.9345 50.8677 16.3506 50.7652 16.7726C48.1734 16.1721 45.3592 15.7256 42.4128 15.4482C40.6965 12.995 38.9179 10.7647 37.1325 8.83395C37.6004 8.38125 38.0795 7.9403 38.5692 7.51149C43.181 3.48364 47.4911 1.89327 49.4549 3.02984ZM35.2329 22.2387C38.3135 22.2387 40.8109 24.7453 40.8109 27.8371C40.8109 30.929 38.3135 33.4355 35.2329 33.4355C32.1523 33.4355 29.6549 30.929 29.6549 27.8371C29.6549 24.7453 32.1523 22.2387 35.2329 22.2387Z" fill="#00D8FF"/>
</g>
<defs>
<filter id="filter0_d_69_465" x="0" y="0" width="70.4658" height="63.7798" filterUnits="userSpaceOnUse" color-interpolation-filters="sRGB">
<feFlood flood-opacity="0" result="BackgroundImageFix"/>
<feColorMatrix in="SourceAlpha" type="matrix" values="0 0 0 0 0 0 0 0 0 0 0 0 0 0 0 0 0 0 127 0" result="hardAlpha"/>
<feOffset dy="4"/>
<feGaussianBlur stdDeviation="2"/>
<feComposite in2="hardAlpha" operator="out"/>
<feColorMatrix type="matrix" values="0 0 0 0 0 0 0 0 0 0 0 0 0 0 0 0 0 0 0.5 0"/>
<feBlend mode="normal" in2="BackgroundImageFix" result="effect1_dropShadow_69_465"/>
<feBlend mode="normal" in="SourceGraphic" in2="effect1_dropShadow_69_465" result="shape"/>
</filter>
</defs>
</svg>
