<svg width="65" height="64" viewBox="0 0 65 64" fill="none" xmlns="http://www.w3.org/2000/svg">
<g filter="url(#filter0_d_69_475)">
<path d="M58.4246 5.90927L46.8712 0.346994C46.2188 0.0324096 45.4846 -0.0714035 44.7705 0.0499457C44.0564 0.171295 43.3978 0.511795 42.8859 1.02425L5.06604 35.5039C4.60717 35.9203 4.3325 36.5019 4.30244 37.1208C4.27238 37.7397 4.48939 38.3451 4.90574 38.804C4.95583 38.8581 5.00593 38.9102 5.06003 38.9583L8.14773 41.7635C8.5512 42.1307 9.07055 42.345 9.61557 42.3691C10.1606 42.3933 10.6969 42.2258 11.1312 41.8957L56.6854 7.35193C57.0294 7.09083 57.4396 6.93096 57.8696 6.89031C58.2996 6.84966 58.7324 6.92985 59.1193 7.12185C59.5063 7.31385 59.8319 7.61004 60.0596 7.97707C60.2873 8.3441 60.4081 8.76741 60.4082 9.19934V9.06509C60.4082 8.40568 60.222 7.75967 59.8711 7.20138C59.5202 6.6431 59.0188 6.19522 58.4246 5.90927Z" fill="#0065A9"/>
<path d="M58.4246 49.8704L46.8712 55.4347C46.2186 55.7484 45.4846 55.8517 44.7708 55.7304C44.0569 55.6091 43.3983 55.2691 42.8859 54.7575L5.06604 20.2758C4.60717 19.8594 4.3325 19.2778 4.30244 18.6589C4.27238 18.04 4.48939 17.4346 4.90574 16.9757C4.95583 16.9216 5.00593 16.8695 5.06003 16.8214L8.14773 14.0162C8.55161 13.6475 9.07215 13.4322 9.61851 13.408C10.1649 13.3839 10.7024 13.5523 11.1372 13.884L56.6854 48.4278C57.0294 48.6889 57.4396 48.8487 57.8696 48.8894C58.2996 48.93 58.7324 48.8498 59.1193 48.6578C59.5063 48.4658 59.8319 48.1697 60.0596 47.8026C60.2873 47.4356 60.4081 47.0123 60.4082 46.5803V46.7246C60.4061 47.3823 60.2189 48.0261 59.8681 48.5824C59.5173 49.1387 59.0171 49.585 58.4246 49.8704Z" fill="#007ACC"/>
<path d="M46.8712 55.4346C46.2185 55.7483 45.4846 55.8516 44.7707 55.7303C44.0568 55.609 43.3982 55.2691 42.8858 54.7574C43.1736 55.0414 43.5387 55.2341 43.9355 55.3115C44.3323 55.3888 44.7432 55.3473 45.1165 55.1922C45.4898 55.0371 45.8091 54.7753 46.0343 54.4395C46.2594 54.1037 46.3805 53.709 46.3823 53.3047V2.47483C46.3826 2.06866 46.2624 1.67152 46.0368 1.33373C45.8113 0.995946 45.4905 0.732702 45.1153 0.577351C44.74 0.421999 44.327 0.38153 43.9287 0.461069C43.5304 0.540608 43.1646 0.736577 42.8778 1.02415C43.3898 0.511887 44.0483 0.171365 44.7623 0.0496784C45.4763 -0.0720081 46.2104 0.0311536 46.8632 0.344896L58.4145 5.89915C59.0106 6.18368 59.514 6.63094 59.8668 7.18934C60.2196 7.74773 60.4072 8.39449 60.4082 9.05498V46.7245C60.4083 47.3845 60.222 48.0311 59.8707 48.5898C59.5194 49.1485 59.0174 49.5966 58.4225 49.8824L46.8712 55.4346Z" fill="#1F9CF0"/>
</g>
<defs>
<filter id="filter0_d_69_475" x="0.299683" y="0" width="64.1085" height="63.7798" filterUnits="userSpaceOnUse" color-interpolation-filters="sRGB">
<feFlood flood-opacity="0" result="BackgroundImageFix"/>
<feColorMatrix in="SourceAlpha" type="matrix" values="0 0 0 0 0 0 0 0 0 0 0 0 0 0 0 0 0 0 127 0" result="hardAlpha"/>
<feOffset dy="4"/>
<feGaussianBlur stdDeviation="2"/>
<feComposite in2="hardAlpha" operator="out"/>
<feColorMatrix type="matrix" values="0 0 0 0 0 0 0 0 0 0 0 0 0 0 0 0 0 0 0.5 0"/>
<feBlend mode="normal" in2="BackgroundImageFix" result="effect1_dropShadow_69_475"/>
<feBlend mode="normal" in="SourceGraphic" in2="effect1_dropShadow_69_475" result="shape"/>
</filter>
</defs>
</svg>
